<svg xmlns="http://www.w3.org/2000/svg" xmlns:xlink="http://www.w3.org/1999/xlink" viewBox="0 0 188.15 200.76"><defs><style>.cls-1{fill:#d2dce5;}.cls-2{isolation:isolate;}.cls-3{clip-path:url(#clip-path);}.cls-4{fill:#421800;}.cls-5,.cls-8{fill:#f0d0b4;}.cls-6{fill:#b14fc5;}.cls-7{fill:#e7ecf2;}.cls-8{opacity:0.5;mix-blend-mode:multiply;}</style><clipPath id="clip-path"><circle class="cls-1" cx="94.07" cy="94.07" r="94.07" transform="translate(-38.97 94.07) rotate(-45)"/></clipPath></defs><title>Asset 3</title><g class="cls-2"><g id="Layer_2" data-name="Layer 2"><g id="OBJECTS"><circle class="cls-1" cx="94.07" cy="94.07" r="94.07" transform="translate(-38.97 94.07) rotate(-45)"/><g class="cls-3"><polygon class="cls-4" points="149.56 97.76 149.56 185.17 38.8 183.29 38.8 95.88 149.56 97.76"/><path class="cls-5" d="M135.94,58.28V84.05c0,.45,0,.91,0,1.36s0,.73,0,1.1,0,.66-.07,1,0,.47-.05.71,0,.27,0,.42,0,.52-.08.78c0,.49-.1,1-.17,1.47l-.06.37c0,.25-.07.49-.11.74v0l-.18,1.07c-.1.49-.19,1-.29,1.47,0,0,0,0,0,.06a1.7,1.7,0,0,1,0,.22s0,0,0,.06l-.18.78a2.09,2.09,0,0,1-.08.34,5.47,5.47,0,0,1-.13.55,3,3,0,0,1-.09.32c0,.1-.05.19-.07.27q-.33,1.26-.72,2.49c-.12.39-.25.77-.38,1.16,0,0,0,.08,0,.12l-.37,1-.12.32-.38,1c-.16.4-.32.79-.49,1.18s-.3.7-.45,1c0,.06-.05.11-.07.17-.18.37-.34.74-.52,1.1s-.36.77-.55,1.15c-.37.75-.77,1.5-1.17,2.23l-.56,1a59.69,59.69,0,0,1-5.25,7.65c-.26.34-.53.67-.8,1s-.78.92-1.17,1.36-.66.75-1,1.11l-.05,0c-1,1.06-2,2.07-3,3-.2.21-.42.39-.64.59s-.69.62-1,.92-.57.49-.86.72c-.74.61-1.48,1.2-2.23,1.74-.31.24-.63.46-.94.68-.52.37-1,.72-1.57,1.06-.29.19-.58.38-.88.55a35.67,35.67,0,0,1-3.16,1.76l-.77.38-.8.37c-.34.16-.68.3-1,.43a2.23,2.23,0,0,1-.4.16c-.4.16-.81.32-1.21.45s-1,.34-1.52.48c-.35.11-.71.2-1.06.28a.15.15,0,0,1-.08,0c-.35.08-.69.17-1,.23l-.28.05c-.29.05-.58.1-.87.13s-.82.12-1.23.14l-.42,0-1,0h0c-.32,0-.64,0-1,0a2.22,2.22,0,0,1-.37,0,7.22,7.22,0,0,1-.9-.09l-.19,0c-.39,0-.77-.11-1.16-.18a9.22,9.22,0,0,1-1-.21,28.87,28.87,0,0,1-5.4-1.82,39.1,39.1,0,0,1-4.72-2.49c-.79-.48-1.58-1-2.37-1.54l-1.17-.84c-1.22-.89-2.43-1.87-3.63-2.92l-1-.91c-.33-.29-.66-.6-1-.9-.76-.73-1.5-1.48-2.21-2.27a.86.86,0,0,1-.13-.14c-.3-.31-.6-.64-.9-1-.82-.93-1.62-1.88-2.38-2.88-.3-.36-.58-.73-.86-1.1q-1.56-2.07-3-4.31l-.73-1.21c-.29-.49-.56-1-.84-1.47a55.69,55.69,0,0,1-2.8-5.76l-.35-.86c-.16-.37-.31-.75-.44-1.12-.2-.55-.4-1.09-.59-1.64s-.36-1.1-.53-1.65-.32-1.07-.46-1.62-.32-1.16-.46-1.76c0-.06,0-.12,0-.18-.19-.82-.37-1.66-.52-2.5-.21-1.11-.37-2.24-.49-3.38-.06-.36-.09-.72-.12-1.08s-.07-.75-.09-1.13c-.05-.69-.08-1.39-.1-2.09,0-.45,0-.91,0-1.36V58.28a41.87,41.87,0,0,1,39.56-41.8h.11l.87,0,1.28,0h0l1.33,0,1,0h0a43.43,43.43,0,0,1,6.9,1,41.89,41.89,0,0,1,32.57,40.46C135.94,58,135.94,58.15,135.94,58.28Z"/><path class="cls-5" d="M148.61,200.75H39.54a54.26,54.26,0,0,1,2.86-17.46s0-.11.05-.16c.34-1,.71-2,1.11-3h0c.39-1,.82-1.93,1.27-2.88a54.21,54.21,0,0,1,6.65-10.59c.65-.81,1.32-1.6,2-2.36.34-.39.7-.77,1.06-1.15l1.09-1.11A53.65,53.65,0,0,1,61.53,157c1-.77,2.09-1.49,3.18-2.19l.43-.27c.4-.26.8-.5,1.21-.74.56-.33,1.12-.65,1.69-1l0,0c.44-.23.87-.49,1.31-.76a32,32,0,0,0,3.69-2.57,34.34,34.34,0,0,0,13-27l8,.05h.14l8,0a34.61,34.61,0,0,0,.51,6,33.89,33.89,0,0,0,1.45,5.54,34.4,34.4,0,0,0,11,15.4c.74.61,1.49,1.16,2.28,1.69l.24.16c.37.25.74.5,1.13.72s.85.52,1.28.75a.49.49,0,0,1,.19.1c.9.5,1.8,1,2.67,1.57l.21.13c.35.22.71.45,1,.69.85.55,1.68,1.14,2.49,1.76h0c1,.77,2,1.59,3,2.44s1.93,1.72,2.85,2.64a54.26,54.26,0,0,1,16,38.6Z"/><path class="cls-6" d="M148.61,200.75H39.54a54.26,54.26,0,0,1,2.86-17.46s0-.11.05-.16c.34-1,.71-2,1.11-3h0c.39-1,.82-1.93,1.27-2.88a54.21,54.21,0,0,1,6.65-10.59c.65-.81,1.32-1.6,2-2.36.34-.39.7-.77,1.06-1.15l1.09-1.11A53.65,53.65,0,0,1,61.53,157c1-.77,2.09-1.49,3.18-2.19l.43-.27c.4-.26.8-.5,1.21-.74.56-.34,1.12-.66,1.69-1a0,0,0,0,1,0,0h0c.44-.24.87-.49,1.31-.75a31.49,31.49,0,0,0,3.67-2.59l0,0a29.34,29.34,0,0,0,21,8.86h.14a29.4,29.4,0,0,0,21-8.85h0c.73.61,1.49,1.17,2.27,1.7l.24.16c.37.25.75.49,1.13.72s.85.51,1.28.74a.85.85,0,0,1,.19.1c.9.5,1.8,1,2.67,1.58l.21.13c.35.22.71.45,1,.69.85.55,1.68,1.14,2.49,1.76h0c1,.78,2,1.59,3,2.45s1.93,1.72,2.85,2.64a54.26,54.26,0,0,1,16,38.6Z"/><path class="cls-4" d="M149.8,170.58a1,1,0,0,1-.24.08c-5.41,1.4-26.73-24.29-26.95-51.23a51.44,51.44,0,0,1,.38-6.54c.72-5.81,3.52-11.39,5.84-17,1.83-4.46,3.39-8.92,3.39-13.52,0-24.68-7.16-16.64-27.12-29.95-4.82-3.21-8.24-5.84-10.92-8-7.42-5.88-9.3-8-19.47-8-12.93,0-18.07,22.46-19.54,32.07-1.59,10.33-1.61,27.08,4.84,43,5,12.36,5,24.47-4.84,37.93-3.69,5-9.35,22.11-16.37,27.61-2.19,1.71-4.5,2.31-6.94,1.07-19.19-9.82-7.64-41.33-1.88-61.06,6.2-21.24,8.07-42.75,12.57-64.19C47.63,28.75,68.3,14,76.65,20c2.78-5,10.07-6.87,17.53-6.87a43.74,43.74,0,0,1,15,2.55c30.49,11.84,31,40.09,32.63,51.84,1.33,9.71,6.11,18.77,7.79,28.36v0a35.88,35.88,0,0,1,.59,6.14c.07,11.22-1.19,18.81,7.34,28.16C164,137.29,159,166.54,149.8,170.58Z"/><path class="cls-7" d="M94.18,158.34l0,0v0a14.88,14.88,0,0,1-23.41,2.1l-5.58-6c1-.61,1.91-1.17,2.9-1.71a0,0,0,0,1,0,0h0c.44-.24.87-.49,1.31-.75a31.49,31.49,0,0,0,3.67-2.59l0,0a29.34,29.34,0,0,0,21,8.86Z"/><path class="cls-7" d="M123.14,154.61l-5.5,5.9a14.88,14.88,0,0,1-23.41-2.1v0l0,0a29.4,29.4,0,0,0,21-8.85h0c.73.61,1.49,1.17,2.27,1.7l.24.16c.37.25.75.49,1.13.72s.85.51,1.28.74a.85.85,0,0,1,.19.1c.9.5,1.8,1,2.67,1.58Z"/><path class="cls-8" d="M94.18,13.13V200.76H39.54a54.26,54.26,0,0,1,2.86-17.46H38.8v-6.22c-2.19,1.71-4.5,2.31-6.94,1.07-19.19-9.82-7.64-41.33-1.88-61.06,6.2-21.24,8.07-42.75,12.57-64.19C47.63,28.75,68.3,14,76.65,20,79.43,15,86.72,13.13,94.18,13.13Z"/></g></g></g></g></svg>