<svg xmlns="http://www.w3.org/2000/svg" xmlns:xlink="http://www.w3.org/1999/xlink" viewBox="0 0 171 65.97"><defs><style>.cls-1{isolation:isolate;}.cls-2{fill:url(#linear-gradient);}.cls-3{fill:url(#linear-gradient-2);}.cls-4{fill:#080f24;opacity:0.3;mix-blend-mode:multiply;}.cls-5{fill:url(#linear-gradient-3);}.cls-6{fill:#fff;}</style><linearGradient id="linear-gradient" x1="15.11" y1="-8.98" x2="15.11" y2="13.75" gradientUnits="userSpaceOnUse"><stop offset="0"/><stop offset="0.06" stop-color="#171717"/><stop offset="0.2" stop-color="#474747"/><stop offset="0.31" stop-color="#656565"/><stop offset="0.37" stop-color="#707070"/><stop offset="0.5" stop-color="#707070"/><stop offset="0.81"/><stop offset="0.85" stop-color="#171717"/><stop offset="0.92" stop-color="#474747"/><stop offset="0.97" stop-color="#656565"/><stop offset="1" stop-color="#707070"/></linearGradient><linearGradient id="linear-gradient-2" x1="155.9" y1="-8.98" x2="155.9" y2="13.75" xlink:href="#linear-gradient"/><linearGradient id="linear-gradient-3" x1="85.62" y1="-38.92" x2="85.62" y2="75.84" xlink:href="#linear-gradient"/></defs><title>Asset 2</title><g class="cls-1"><g id="Layer_2" data-name="Layer 2"><g id="Layer_1-2" data-name="Layer 1"><path class="cls-2" d="M30.22,10H0C2.81-.72,12.49,0,12.49,0h6.86C25.62,2.32,30.22,10,30.22,10Z"/><path class="cls-3" d="M140.79,10H171C167.8-.72,158.52,0,158.52,0h-6.87C145.39,2.32,140.79,10,140.79,10Z"/><path class="cls-4" d="M30.22,10H0C2.81-.72,12.49,0,12.49,0h6.86C25.62,2.32,30.22,10,30.22,10Z"/><path class="cls-4" d="M140.79,10H171C167.8-.72,158.52,0,158.52,0h-6.87C145.39,2.32,140.79,10,140.79,10Z"/><path class="cls-5" d="M158.76,0c-2.92,0-5.72,1.41-8.17,4a27.9,27.9,0,0,0-6,10.84c-2,6.37-5.41,33.47-7.38,43.74-.89,4.63-2.49,7.84-12.46,7.35-19.84-1-53.16-1.49-81.93-.66-2.92,0-5.72-1.41-8.16-4s-6.6-41.89-8.06-46.47A34,34,0,0,0,24.71,10C21.64,3.73,17.21,0,12.49,0Z"/><path class="cls-6" d="M64.82,35.41H42.91L55.79,19.64A13.39,13.39,0,0,0,57.52,17a5,5,0,0,0,.56-2.18,3.5,3.5,0,0,0-.95-2.55,3.32,3.32,0,0,0-2.5-1,3.44,3.44,0,0,0-2.83,1.22,5.46,5.46,0,0,0-1,3.53v.36h-6.9v-.2a10.84,10.84,0,0,1,2.85-7.95,10.46,10.46,0,0,1,7.79-2.9A11.05,11.05,0,0,1,62.24,8a8.75,8.75,0,0,1,2.86,6.85,9.7,9.7,0,0,1-.9,4.06,18.33,18.33,0,0,1-3,4.33L56,29.11h8.78Z"/><path class="cls-6" d="M78.56,35.41V28.76H65.5V22.93l10.69-17H85.1v17h3.18v5.83H85.1v6.65Zm0-12.48V14.29c0-.8,0-1.46,0-2a13.39,13.39,0,0,1,.14-1.36c-.25.58-.52,1.16-.83,1.74s-.68,1.23-1.13,1.95l-5.27,8.31Z"/><path class="cls-6" d="M86.7,39.27l14.06-34.2h4.33l-14,34.2Z"/><path class="cls-6" d="M109.31,35.41l10.78-22.74H108V6h21.91V7.44l-12.48,28Z"/><path class="cls-6" d="M57.11,56.93a5.45,5.45,0,0,1-1.06-3.44l2.48-.44a5,5,0,0,0,.37,2.05,1.1,1.1,0,0,0,1,.66.83.83,0,0,0,.73-.33,1.53,1.53,0,0,0,.23-.86,2.72,2.72,0,0,0-.38-1.47,6.15,6.15,0,0,0-1.18-1.33l-1.47-1.32a5.86,5.86,0,0,1-1.33-1.63,4.31,4.31,0,0,1-.46-2.07,3.62,3.62,0,0,1,1-2.76,4,4,0,0,1,2.82-1,3,3,0,0,1,2.67,1.15,5.92,5.92,0,0,1,.86,2.92l-2.5.38a5.52,5.52,0,0,0-.25-1.71.85.85,0,0,0-.87-.55.83.83,0,0,0-.73.37,1.45,1.45,0,0,0-.26.88,2.32,2.32,0,0,0,.3,1.22,5.63,5.63,0,0,0,1,1.09l1.43,1.3A7.8,7.8,0,0,1,63.12,52a4.74,4.74,0,0,1,.58,2.4,3.73,3.73,0,0,1-.46,1.87A3.24,3.24,0,0,1,62,57.57a3.83,3.83,0,0,1-1.91.47A3.72,3.72,0,0,1,57.11,56.93Z"/><path class="cls-6" d="M66.09,43.21h6.17v2H69v3.89h2.55v2.08H69v4.59h3.33v2h-6.2Z"/><path class="cls-6" d="M74.63,43.21H78.3a5.67,5.67,0,0,1,3.44.86,3.53,3.53,0,0,1,1.16,3,5.79,5.79,0,0,1-.39,2.31,2.58,2.58,0,0,1-1.36,1.32l2,7.14h-3l-1.6-6.63h-1v6.63H74.63Zm3.72,6.23a1.72,1.72,0,0,0,1.43-.52,2.59,2.59,0,0,0,.41-1.61,2.66,2.66,0,0,0-.37-1.59,1.53,1.53,0,0,0-1.33-.51h-1v4.23Z"/><path class="cls-6" d="M84.92,43.21h2.5L89.1,53.32l1.57-10.11h2.6L90.58,57.84h-3Z"/><path class="cls-6" d="M95.61,43.21h2.87V57.84H95.61Z"/><path class="cls-6" d="M102.23,56.78a5.92,5.92,0,0,1-.94-3.62V47.92a6.06,6.06,0,0,1,.93-3.66,4.79,4.79,0,0,1,6.27-.14,4.8,4.8,0,0,1,.9,3.13v1.23H106.6V47.13a7.24,7.24,0,0,0-.06-1.05,1.15,1.15,0,0,0-.32-.66,1,1,0,0,0-.77-.26,1,1,0,0,0-1,.52,4.08,4.08,0,0,0-.22,1.54v6.65a3.4,3.4,0,0,0,.26,1.53,1,1,0,0,0,1,.51.91.91,0,0,0,.94-.52,4.21,4.21,0,0,0,.21-1.52V52.44h2.79v1.21a5.12,5.12,0,0,1-.89,3.24A3.65,3.65,0,0,1,105.43,58,3.75,3.75,0,0,1,102.23,56.78Z"/><path class="cls-6" d="M112,43.21h6.17v2h-3.3v3.89h2.55v2.08H114.9v4.59h3.33v2H112Z"/></g></g></g></svg>