<svg xmlns="http://www.w3.org/2000/svg" xmlns:xlink="http://www.w3.org/1999/xlink" viewBox="0 0 188.15 200.75"><defs><style>.cls-1{fill:#7c6990;}.cls-2{isolation:isolate;}.cls-3{clip-path:url(#clip-path);}.cls-4,.cls-9{fill:#ecc19c;}.cls-5{fill:#185a7d;}.cls-6{fill:#7aa5ba;}.cls-7{fill:#d2dce5;}.cls-8{fill:#1a1a1a;}.cls-9{opacity:0.5;mix-blend-mode:multiply;}</style><clipPath id="clip-path"><circle class="cls-1" cx="94.07" cy="94.07" r="94.07"/></clipPath></defs><title>Asset 2</title><g class="cls-2"><g id="Layer_2" data-name="Layer 2"><g id="OBJECTS"><circle class="cls-1" cx="94.07" cy="94.07" r="94.07"/><g class="cls-3"><path class="cls-4" d="M148.64,200.74H39.57a54.29,54.29,0,0,1,2.91-17.61c.34-1,.71-2,1.11-3h0c.39-1,.82-1.93,1.27-2.88a54.21,54.21,0,0,1,6.65-10.59c.65-.81,1.32-1.6,2-2.36.34-.39.7-.77,1.06-1.15l1.09-1.12A53.56,53.56,0,0,1,61.56,157c1-.78,2.09-1.49,3.18-2.19.39-.25.78-.5,1.18-.73l.54-.31c.53-.32,1.06-.63,1.61-.93l0,0c.44-.23.87-.49,1.31-.76a32,32,0,0,0,3.69-2.57,34.67,34.67,0,0,0,9.14-11.09,35.73,35.73,0,0,0,1.86-4.25,34.56,34.56,0,0,0,2-11.65l7.95,0h0l8.15,0a34.33,34.33,0,0,0,2,11.52,32.19,32.19,0,0,0,1.84,4.26,34.56,34.56,0,0,0,9.12,11.14c.74.61,1.49,1.16,2.28,1.69l.24.16c.37.25.74.49,1.13.72s.85.52,1.28.75a.48.48,0,0,1,.19.09c.48.27,1,.55,1.44.84s.82.48,1.23.74.84.52,1.26.82c.85.54,1.68,1.14,2.49,1.76h0c1,.77,2,1.59,3,2.43s1.93,1.73,2.85,2.65A54.25,54.25,0,0,1,148.64,200.74Z"/><path class="cls-5" d="M148.64,200.74H39.57a54.29,54.29,0,0,1,2.91-17.61c.34-1,.71-2,1.11-3h0c.39-1,.82-1.93,1.27-2.88a54.21,54.21,0,0,1,6.65-10.59c.65-.81,1.32-1.6,2-2.36.34-.39.7-.77,1.06-1.15l1.09-1.12A53.56,53.56,0,0,1,61.56,157c1-.78,2.09-1.49,3.18-2.19.39-.25.78-.5,1.18-.73.18-.12.35-.22.53-.32q.8-.48,1.62-.93a0,0,0,0,1,0,0h0l1.31-.75a31.49,31.49,0,0,0,3.67-2.59l0,0a29.29,29.29,0,0,0,21,8.85h.08a29.37,29.37,0,0,0,21-8.84h0c.73.61,1.49,1.17,2.27,1.7l.24.16c.37.25.75.48,1.13.72s.85.5,1.28.74a.84.84,0,0,1,.19.09c.48.27,1,.55,1.45.84s.82.49,1.22.75.84.52,1.26.82c.85.54,1.68,1.14,2.49,1.76h0c1,.78,2,1.59,3,2.44s1.93,1.73,2.85,2.65A54.25,54.25,0,0,1,148.64,200.74Z"/><path class="cls-6" d="M121.74,153.73h0l-1.12,1.14A36.92,36.92,0,0,1,94.09,166h0a37,37,0,0,1-26.55-11.16l-1.06-1.1h0q.8-.48,1.62-.93a0,0,0,0,1,0,0h0l1.31-.75a31.49,31.49,0,0,0,3.67-2.59l0,0a29.29,29.29,0,0,0,21,8.85h.08a29.37,29.37,0,0,0,21-8.84h0c.73.61,1.49,1.17,2.27,1.7l.24.16c.37.25.75.48,1.13.72s.85.5,1.28.74a.84.84,0,0,1,.19.09C120.77,153.16,121.27,153.44,121.74,153.73Z"/><path class="cls-4" d="M136,64.09v25.1c0,.45,0,.91,0,1.36s0,.7,0,1,0,.69-.07,1,0,.48-.05.71,0,.28,0,.43,0,.52-.08.78,0,.49-.08.74a6.7,6.7,0,0,1-.1.73c-.09.74-.21,1.48-.34,2.21-.1.49-.19,1-.29,1.47,0,0,0,0,0,.06a2.07,2.07,0,0,1,0,.22s0,0,0,.06a.07.07,0,0,1,0,.06c0,.1,0,.2-.07.31s-.05.24-.08.37a2.62,2.62,0,0,1-.09.38,5.47,5.47,0,0,1-.13.55,3,3,0,0,1-.09.32c0,.09-.05.19-.07.27q-.33,1.26-.72,2.49c-.12.39-.25.77-.38,1.16,0,0,0,.08,0,.12l-.37,1.05-.12.32-.38,1c-.16.4-.32.79-.49,1.18s-.3.7-.45,1c0,.06-.05.11-.07.17-.18.37-.34.74-.52,1.1s-.36.76-.55,1.14c-.37.75-.77,1.51-1.17,2.24l-.56,1a59.69,59.69,0,0,1-5.25,7.65c-.26.34-.53.67-.8,1l-1.17,1.36c-.35.39-.7.78-1.06,1.16q-1.47,1.59-3,3c-.2.21-.42.39-.64.59s-.69.62-1,.92-.57.48-.86.72c-.74.61-1.48,1.19-2.23,1.74l-.94.68c-.52.37-1,.72-1.57,1.06-.29.19-.58.38-.88.55-1,.6-1.93,1.14-2.89,1.63l-.27.13-.77.38-.8.37c-.34.15-.68.3-1,.43l-.4.16c-.4.16-.81.31-1.21.45s-1,.34-1.52.48-.71.2-1.06.28l-.08,0-1,.23-.28.05c-.29,0-.58.1-.87.13s-.82.11-1.23.13a2,2,0,0,1-.42,0l-1,0h0c-.32,0-.64,0-.95,0a1.5,1.5,0,0,1-.37,0c-.29,0-.59,0-.9-.08l-.19,0c-.39-.05-.77-.11-1.16-.18s-.65-.13-1-.21a29.61,29.61,0,0,1-5.4-1.82c-.62-.28-1.25-.56-1.86-.89-1-.48-1.91-1-2.86-1.6-.79-.48-1.58-1-2.37-1.54l-1.17-.84q-1.83-1.35-3.63-2.92l-1-.91c-.33-.29-.66-.6-1-.9-.8-.77-1.58-1.57-2.34-2.41-.3-.32-.6-.64-.9-1-.82-.93-1.62-1.89-2.38-2.88-.3-.36-.58-.73-.86-1.1q-1.56-2.07-3-4.31c-.25-.4-.49-.81-.73-1.21s-.56-1-.84-1.47a56.7,56.7,0,0,1-2.8-5.76c-.12-.29-.24-.58-.35-.87s-.31-.75-.44-1.12c-.21-.54-.4-1.09-.59-1.63s-.36-1.1-.53-1.66-.32-1.07-.46-1.61-.32-1.16-.46-1.76c0-.06,0-.12,0-.18-.19-.83-.37-1.66-.52-2.5-.21-1.11-.37-2.24-.49-3.38-.06-.36-.09-.72-.12-1.08s-.07-.75-.09-1.14c0-.68-.08-1.38-.1-2.08,0-.45,0-.91,0-1.36V64.09a41.7,41.7,0,0,1,3.26-16.21c.05-.14.11-.28.17-.41a40.48,40.48,0,0,1,2.84-5.42c.16-.28.34-.54.51-.81a41.83,41.83,0,0,1,35-19h0a42.36,42.36,0,0,1,9.28,1,40.93,40.93,0,0,1,7.83,2.62,41.93,41.93,0,0,1,15.83,12.39c.74.94,1.44,1.92,2.1,2.93.19.28.37.55.54.84a40.74,40.74,0,0,1,2.83,5.4l.19.43A41.58,41.58,0,0,1,136,63.72C136,63.85,136,64,136,64.09Z"/><path class="cls-7" d="M136,89.19c0,.45,0,.91,0,1.36s0,.7,0,1,0,.69-.07,1,0,.48-.05.71,0,.28,0,.43,0,.52-.08.78,0,.49-.08.74a6.7,6.7,0,0,1-.1.73c-.09.74-.21,1.48-.34,2.21-.09.43-.17.85-.26,1.27a1.72,1.72,0,0,1,0,.26,2.07,2.07,0,0,1,0,.22s0,0,0,.06a.07.07,0,0,1,0,.06v0c0,.11,0,.23-.07.33s-.05.22-.08.33a2.62,2.62,0,0,1-.09.38,4,4,0,0,1-.16.59,1.27,1.27,0,0,1-.06.28c0,.09-.05.19-.07.27q-.33,1.26-.72,2.49c-.12.39-.25.77-.38,1.16,0,0,0,.08,0,.12l-.37,1.05-.12.32-.38,1c-.16.4-.32.79-.49,1.18s-.3.7-.45,1c0,.06-.05.11-.07.17-.18.37-.34.74-.52,1.1s-.36.76-.55,1.14c-.37.75-.77,1.51-1.17,2.24l-.56,1a59.69,59.69,0,0,1-5.25,7.65c-.26.34-.53.67-.8,1l-1.17,1.36c-.35.39-.7.78-1.06,1.16q-1.47,1.59-3,3c-.2.21-.42.39-.64.59s-.69.62-1,.92-.57.48-.86.72c-.74.61-1.48,1.19-2.23,1.74l-.94.68c-.52.37-1,.72-1.57,1.06-.29.19-.58.38-.88.55-1,.6-1.93,1.14-2.89,1.63l-.27.13-.77.38-.8.37c-.34.15-.68.3-1,.43l-.4.16c-.4.16-.81.31-1.21.45s-1,.34-1.52.48-.71.2-1.06.28l-.08,0-1,.23-.28.05c-.29,0-.58.1-.87.13s-.82.11-1.23.13a2,2,0,0,1-.42,0l-1,0h0c-.32,0-.64,0-.95,0a1.5,1.5,0,0,1-.37,0c-.29,0-.59,0-.9-.08l-.19,0c-.39-.05-.77-.11-1.16-.18s-.65-.13-1-.21a29.61,29.61,0,0,1-5.4-1.82c-.62-.28-1.25-.56-1.86-.89-1-.48-1.91-1-2.86-1.6-.79-.47-1.57-1-2.37-1.54l-1.17-.84q-1.83-1.35-3.63-2.92l-1-.91c-.33-.29-.66-.6-1-.9-.8-.77-1.58-1.57-2.34-2.41-.3-.32-.6-.64-.9-1-.82-.93-1.62-1.89-2.38-2.88-.3-.36-.58-.73-.86-1.1q-1.56-2.07-3-4.31c-.25-.4-.49-.81-.73-1.21s-.56-1-.84-1.47a56.7,56.7,0,0,1-2.8-5.76c-.12-.29-.24-.58-.35-.87s-.31-.75-.44-1.12c-.21-.54-.4-1.09-.59-1.63s-.36-1.1-.53-1.66-.32-1.07-.46-1.61-.32-1.16-.46-1.76c0-.06,0-.12,0-.18-.19-.83-.37-1.66-.52-2.5-.21-1.11-.37-2.24-.49-3.38-.06-.36-.09-.72-.12-1.08s-.07-.75-.09-1.14c0-.68-.08-1.38-.1-2.08,0-.45,0-.91,0-1.36l6.68,13.14,11.48,5L84,108.56h0l10.06.92h.06l9.42.85h0l21,1.89Z"/><path class="cls-7" d="M94.15,95.79v10.13h0v15.59h0v0h0L53.63,100.91c0-.06,0-.12,0-.18-.19-.83-.37-1.66-.52-2.5-.21-1.11-.37-2.24-.49-3.38-.06-.36-.09-.72-.12-1.08s-.07-.75-.09-1.14c0-.68-.08-1.38-.1-2.08,0-.45,0-.91,0-1.36V76.9c0,.18,0,.35,0,.53s0,.25,0,.37A40.46,40.46,0,0,0,53.73,87a41.13,41.13,0,0,0,2.62,7.06h0c2.69,5.61,6.3,9.41,9.62,10l.63.07a37,37,0,0,0,4,.23c5.24,0,9.9-4.22,12.83-5.92l.06,0c.16-.09.31-.18.44-.27l.13-.08a20.89,20.89,0,0,1,10-2.31Z"/><path class="cls-7" d="M136,76.9V89.19a50.72,50.72,0,0,1-.82,9c-.22,1.18-.46,2.34-.75,3.49l-9.49,13.7-30.78,6.1h0l0-25.73h.09a20.81,20.81,0,0,1,10,2.32l.11.07.46.28,0,0c2.94,1.7,7.58,5.92,12.83,5.92a37.21,37.21,0,0,0,4-.22l.64-.08c3.31-.61,6.93-4.42,9.61-10h0A41.45,41.45,0,0,0,134.5,87,40.26,40.26,0,0,0,136,77.29C136,77.16,136,77,136,76.9Z"/><ellipse class="cls-4" cx="94.11" cy="109.09" rx="10.25" ry="3.17"/><path class="cls-8" d="M130.78,63.48a.35.35,0,0,0-.3-.35A110.68,110.68,0,0,0,115.27,62c-8.07,0-18.48,2.53-20.3,2.53H93.35c-.84,0-3.56-.55-7-1.14A85.18,85.18,0,0,0,73.05,62a113.36,113.36,0,0,0-13,.83c-1,.12-1.81.24-2.21.3a.35.35,0,0,0-.3.35l-.08,4.34a.39.39,0,0,0,.23.35l.49.16c.73.28.67,13.36,4.56,16.62,2.32,1.93,4.38,3,13.07,3,5,0,8.2-1.36,11.2-5.41,2.16-2.91,4.08-9.79,4.08-9.79a3.41,3.41,0,0,1,3-3.08h.08c.08,0,2.46,0,3.08,3.08,0,0,1.92,6.88,4.08,9.79,3,4.05,6.17,5.41,11.2,5.41,8.68,0,10.75-1.1,13.06-3,3.9-3.26,3.84-16.34,4.57-16.62l.49-.16a.39.39,0,0,0,.23-.35ZM87,79c-1.29,3-4.58,6.92-9.22,7.16-13.94.7-14.57-3.19-15.48-6.28A21.24,21.24,0,0,1,61.53,71c.36-3.08,1.14-4.89,2.54-5.8a6.23,6.23,0,0,1,2.93-1,56.94,56.94,0,0,1,7.67-.35,39.39,39.39,0,0,1,6.2.47c5,.8,8.31,2.49,8.31,4.14A31.08,31.08,0,0,1,87,79Zm39,.88c-.91,3.09-1.55,7-15.48,6.28-4.65-.24-8-4.14-9.22-7.16a31.08,31.08,0,0,1-2.17-10.53c0-2.28,6.34-4.61,14.51-4.61s9.46.6,10.6,1.36c1.4.91,2.18,2.72,2.54,5.8A21.24,21.24,0,0,1,126,79.83Z"/><path class="cls-7" d="M136.06,47.87H52.25c0-29.6,19.94-28.41,41.82-26h0l4.68.52c16.37,1.82,29.69-5.25,36.36-11.51C144.21,17.39,145.83,41.26,136.06,47.87Z"/><path class="cls-7" d="M66.85,46.13l-.23.71c-.11.35-.23.7-.35,1s-.19.56-.31.82a47.75,47.75,0,0,1-8.4,14.07c-2.51,3-5,7.74-5.28,15,0,.42,0,.84,0,1.28V47.88l3.43-.41,3.35-.4L63,46.6Z"/><path class="cls-7" d="M136.18,47.88l-14.6-1.74.23.71a47.31,47.31,0,0,0,9.05,15.92c2.66,3.15,5.32,8.3,5.32,16.32Z"/><path class="cls-7" d="M125.26,46.14c0,3.27-14,5.91-31.19,5.91s-31.19-2.64-31.19-5.91,14-5.91,31.19-5.91S125.26,42.88,125.26,46.14Z"/><path class="cls-9" d="M94.07,21.91V200.75H39.57a54.29,54.29,0,0,1,2.91-17.61c.34-1,.71-2,1.11-3h0c.39-1,.82-1.93,1.27-2.88a54.21,54.21,0,0,1,6.65-10.59c.65-.81,1.32-1.6,2-2.36.34-.39.7-.77,1.06-1.15l1.09-1.12A53.56,53.56,0,0,1,61.56,157c1-.78,2.09-1.49,3.18-2.19.39-.25.78-.5,1.18-.73.18-.12.35-.22.53-.32q.8-.48,1.62-.93a0,0,0,0,1,0,0h0l1.31-.75a31.49,31.49,0,0,0,3.67-2.59l0,0a34.67,34.67,0,0,0,9.14-11.09c-1-.48-1.91-1-2.86-1.6-.79-.47-1.57-1-2.37-1.54l-1.17-.84q-1.83-1.35-3.63-2.92l-1-.91c-.33-.29-.66-.6-1-.9-.8-.77-1.58-1.57-2.34-2.41-.3-.32-.6-.64-.9-1-.82-.93-1.62-1.89-2.38-2.88-.3-.36-.58-.73-.86-1.1q-1.56-2.07-3-4.31c-.25-.4-.49-.81-.73-1.21s-.56-1-.84-1.47a56.7,56.7,0,0,1-2.8-5.76c-.12-.29-.24-.58-.35-.87s-.31-.75-.44-1.12c-.21-.54-.4-1.09-.59-1.63s-.36-1.1-.53-1.66-.32-1.07-.46-1.61-.32-1.16-.46-1.76c0-.06,0-.12,0-.18-.19-.83-.37-1.66-.52-2.5-.21-1.11-.37-2.24-.49-3.38-.06-.36-.09-.72-.12-1.08s-.07-.75-.09-1.14c0-.68-.08-1.38-.1-2.08,0-.45,0-.91,0-1.36V47.88C52.25,18.28,72.19,19.47,94.07,21.91Z"/></g></g></g></g></svg>