<svg xmlns="http://www.w3.org/2000/svg" xmlns:xlink="http://www.w3.org/1999/xlink" viewBox="0 0 133.24 151.88"><defs><style>.cls-1{mask:url(#mask);filter:url(#luminosity-noclip-4);}.cls-2,.cls-4,.cls-6{mix-blend-mode:multiply;}.cls-2{fill:url(#Áåçûìÿííûé_ãðàäèåíò_2);}.cls-3{mask:url(#mask-2);filter:url(#luminosity-noclip-5);}.cls-4{fill:url(#Áåçûìÿííûé_ãðàäèåíò_2-2);}.cls-5{mask:url(#mask-3);filter:url(#luminosity-noclip-6);}.cls-6{fill:url(#Áåçûìÿííûé_ãðàäèåíò_2-3);}.cls-7{fill:#6b5e9a;opacity:0.7;}.cls-8{fill:#24126a;}.cls-9{fill:url(#Áåçûìÿííûé_ãðàäèåíò_3);}.cls-10{fill:#393091;}.cls-11{fill:#cad0f9;}.cls-12{opacity:0.51;}.cls-13{fill:#453c9e;}.cls-14{fill:#bcbeff;}.cls-15{mask:url(#mask-4);}.cls-16,.cls-51,.cls-81{opacity:0.78;}.cls-16{fill:url(#Áåçûìÿííûé_ãðàäèåíò_14);}.cls-17{fill:url(#Áåçûìÿííûé_ãðàäèåíò_24);}.cls-18{fill:url(#Áåçûìÿííûé_ãðàäèåíò_3-2);}.cls-19{fill:url(#Áåçûìÿííûé_ãðàäèåíò_3-3);}.cls-20{fill:#3f21d3;}.cls-21{fill:url(#Áåçûìÿííûé_ãðàäèåíò_24-2);}.cls-22{fill:url(#Áåçûìÿííûé_ãðàäèåíò_24-3);}.cls-23{fill:url(#Áåçûìÿííûé_ãðàäèåíò_24-4);}.cls-24{fill:url(#Áåçûìÿííûé_ãðàäèåíò_24-5);}.cls-25{fill:url(#Áåçûìÿííûé_ãðàäèåíò_24-6);}.cls-26{fill:url(#Áåçûìÿííûé_ãðàäèåíò_24-7);}.cls-27{fill:url(#Áåçûìÿííûé_ãðàäèåíò_24-8);}.cls-28{fill:url(#Áåçûìÿííûé_ãðàäèåíò_24-9);}.cls-29{fill:url(#Áåçûìÿííûé_ãðàäèåíò_24-10);}.cls-30{fill:url(#Áåçûìÿííûé_ãðàäèåíò_24-11);}.cls-31{fill:url(#Áåçûìÿííûé_ãðàäèåíò_24-12);}.cls-32{fill:url(#Áåçûìÿííûé_ãðàäèåíò_24-13);}.cls-33{fill:url(#Áåçûìÿííûé_ãðàäèåíò_3-4);}.cls-34{fill:url(#Áåçûìÿííûé_ãðàäèåíò_24-14);}.cls-35{fill:url(#Áåçûìÿííûé_ãðàäèåíò_3-5);}.cls-36{fill:url(#Áåçûìÿííûé_ãðàäèåíò_24-15);}.cls-37{fill:url(#Áåçûìÿííûé_ãðàäèåíò_3-6);}.cls-38{fill:url(#Áåçûìÿííûé_ãðàäèåíò_24-16);}.cls-39{fill:url(#Áåçûìÿííûé_ãðàäèåíò_3-7);}.cls-40{fill:url(#Áåçûìÿííûé_ãðàäèåíò_24-17);}.cls-41{fill:url(#Áåçûìÿííûé_ãðàäèåíò_3-8);}.cls-42{fill:url(#Áåçûìÿííûé_ãðàäèåíò_24-18);}.cls-43{fill:url(#Áåçûìÿííûé_ãðàäèåíò_3-9);}.cls-44{fill:url(#Áåçûìÿííûé_ãðàäèåíò_24-19);}.cls-45{fill:#fff;}.cls-46,.cls-47,.cls-48{fill:#42e8e0;}.cls-47{opacity:0.1;}.cls-48{opacity:0.4;}.cls-49{fill:url(#Áåçûìÿííûé_ãðàäèåíò_3-10);}.cls-50{mask:url(#mask-5);}.cls-51{fill:url(#Áåçûìÿííûé_ãðàäèåíò_14-2);}.cls-52{fill:url(#Áåçûìÿííûé_ãðàäèåíò_24-20);}.cls-53{fill:url(#Áåçûìÿííûé_ãðàäèåíò_3-11);}.cls-54{fill:url(#Áåçûìÿííûé_ãðàäèåíò_3-12);}.cls-55{fill:url(#Áåçûìÿííûé_ãðàäèåíò_24-21);}.cls-56{fill:url(#Áåçûìÿííûé_ãðàäèåíò_24-22);}.cls-57{fill:url(#Áåçûìÿííûé_ãðàäèåíò_24-23);}.cls-58{fill:url(#Áåçûìÿííûé_ãðàäèåíò_24-24);}.cls-59{fill:url(#Áåçûìÿííûé_ãðàäèåíò_24-25);}.cls-60{fill:url(#Áåçûìÿííûé_ãðàäèåíò_24-26);}.cls-61{fill:url(#Áåçûìÿííûé_ãðàäèåíò_24-27);}.cls-62{fill:url(#Áåçûìÿííûé_ãðàäèåíò_24-28);}.cls-63{fill:url(#Áåçûìÿííûé_ãðàäèåíò_24-29);}.cls-64{fill:url(#Áåçûìÿííûé_ãðàäèåíò_24-30);}.cls-65{fill:url(#Áåçûìÿííûé_ãðàäèåíò_24-31);}.cls-66{fill:url(#Áåçûìÿííûé_ãðàäèåíò_24-32);}.cls-67{fill:url(#Áåçûìÿííûé_ãðàäèåíò_3-13);}.cls-68{fill:url(#Áåçûìÿííûé_ãðàäèåíò_24-33);}.cls-69{fill:url(#Áåçûìÿííûé_ãðàäèåíò_3-14);}.cls-70{fill:url(#Áåçûìÿííûé_ãðàäèåíò_24-34);}.cls-71{fill:url(#Áåçûìÿííûé_ãðàäèåíò_3-15);}.cls-72{fill:url(#Áåçûìÿííûé_ãðàäèåíò_24-35);}.cls-73{fill:url(#Áåçûìÿííûé_ãðàäèåíò_3-16);}.cls-74{fill:url(#Áåçûìÿííûé_ãðàäèåíò_24-36);}.cls-75{fill:url(#Áåçûìÿííûé_ãðàäèåíò_3-17);}.cls-76{fill:url(#Áåçûìÿííûé_ãðàäèåíò_24-37);}.cls-77{fill:url(#Áåçûìÿííûé_ãðàäèåíò_3-18);}.cls-78{fill:url(#Áåçûìÿííûé_ãðàäèåíò_24-38);}.cls-79{fill:url(#Áåçûìÿííûé_ãðàäèåíò_3-19);}.cls-80{mask:url(#mask-6);}.cls-81{fill:url(#Áåçûìÿííûé_ãðàäèåíò_14-3);}.cls-82{fill:url(#Áåçûìÿííûé_ãðàäèåíò_24-39);}.cls-83{fill:url(#Áåçûìÿííûé_ãðàäèåíò_3-20);}.cls-84{fill:url(#Áåçûìÿííûé_ãðàäèåíò_3-21);}.cls-85{fill:url(#Áåçûìÿííûé_ãðàäèåíò_24-40);}.cls-86{fill:url(#Áåçûìÿííûé_ãðàäèåíò_24-41);}.cls-87{fill:url(#Áåçûìÿííûé_ãðàäèåíò_24-42);}.cls-88{fill:url(#Áåçûìÿííûé_ãðàäèåíò_24-43);}.cls-89{fill:url(#Áåçûìÿííûé_ãðàäèåíò_24-44);}.cls-90{fill:url(#Áåçûìÿííûé_ãðàäèåíò_24-45);}.cls-91{fill:url(#Áåçûìÿííûé_ãðàäèåíò_24-46);}.cls-92{fill:url(#Áåçûìÿííûé_ãðàäèåíò_24-47);}.cls-93{fill:url(#Áåçûìÿííûé_ãðàäèåíò_24-48);}.cls-94{fill:url(#Áåçûìÿííûé_ãðàäèåíò_24-49);}.cls-95{fill:url(#Áåçûìÿííûé_ãðàäèåíò_24-50);}.cls-96{fill:url(#Áåçûìÿííûé_ãðàäèåíò_24-51);}.cls-97{fill:url(#Áåçûìÿííûé_ãðàäèåíò_3-22);}.cls-98{fill:url(#Áåçûìÿííûé_ãðàäèåíò_24-52);}.cls-99{fill:url(#Áåçûìÿííûé_ãðàäèåíò_3-23);}.cls-100{fill:url(#Áåçûìÿííûé_ãðàäèåíò_24-53);}.cls-101{fill:url(#Áåçûìÿííûé_ãðàäèåíò_3-24);}.cls-102{fill:url(#Áåçûìÿííûé_ãðàäèåíò_24-54);}.cls-103{fill:url(#Áåçûìÿííûé_ãðàäèåíò_3-25);}.cls-104{fill:url(#Áåçûìÿííûé_ãðàäèåíò_24-55);}.cls-105{fill:url(#Áåçûìÿííûé_ãðàäèåíò_3-26);}.cls-106{fill:url(#Áåçûìÿííûé_ãðàäèåíò_24-56);}.cls-107{fill:url(#Áåçûìÿííûé_ãðàäèåíò_3-27);}.cls-108{fill:url(#Áåçûìÿííûé_ãðàäèåíò_24-57);}.cls-109{filter:url(#luminosity-noclip-3);}.cls-110{filter:url(#luminosity-noclip-2);}.cls-111{filter:url(#luminosity-noclip);}</style><filter id="luminosity-noclip" x="66.62" y="-8303.42" width="37.96" height="32766" filterUnits="userSpaceOnUse" color-interpolation-filters="sRGB"><feFlood flood-color="#fff" result="bg"/><feBlend in="SourceGraphic" in2="bg"/></filter><mask id="mask" x="66.62" y="-8303.42" width="37.96" height="32766" maskUnits="userSpaceOnUse"><g class="cls-111"/></mask><linearGradient id="Áåçûìÿííûé_ãðàäèåíò_2" x1="72.52" y1="17.22" x2="110.48" y2="17.22" gradientUnits="userSpaceOnUse"><stop offset="0"/><stop offset="0.05" stop-color="#2f2f2f"/><stop offset="0.1" stop-color="#5a5a5a"/><stop offset="0.15" stop-color="#828282"/><stop offset="0.22" stop-color="#a4a4a4"/><stop offset="0.28" stop-color="silver"/><stop offset="0.36" stop-color="#d7d7d7"/><stop offset="0.44" stop-color="#e9e9e9"/><stop offset="0.54" stop-color="#f6f6f6"/><stop offset="0.68" stop-color="#fdfdfd"/><stop offset="1" stop-color="#fff"/></linearGradient><filter id="luminosity-noclip-2" x="35.69" y="-8303.42" width="37.96" height="32766" filterUnits="userSpaceOnUse" color-interpolation-filters="sRGB"><feFlood flood-color="#fff" result="bg"/><feBlend in="SourceGraphic" in2="bg"/></filter><mask id="mask-2" x="35.69" y="-8303.42" width="37.96" height="32766" maskUnits="userSpaceOnUse"><g class="cls-110"/></mask><linearGradient id="Áåçûìÿííûé_ãðàäèåíò_2-2" x1="41.59" y1="36.64" x2="79.55" y2="36.64" xlink:href="#Áåçûìÿííûé_ãðàäèåíò_2"/><filter id="luminosity-noclip-3" x="4.76" y="-8303.42" width="37.96" height="32766" filterUnits="userSpaceOnUse" color-interpolation-filters="sRGB"><feFlood flood-color="#fff" result="bg"/><feBlend in="SourceGraphic" in2="bg"/></filter><mask id="mask-3" x="4.76" y="-8303.42" width="37.96" height="32766" maskUnits="userSpaceOnUse"><g class="cls-109"/></mask><linearGradient id="Áåçûìÿííûé_ãðàäèåíò_2-3" x1="10.66" y1="56.06" x2="48.62" y2="56.06" xlink:href="#Áåçûìÿííûé_ãðàäèåíò_2"/><linearGradient id="Áåçûìÿííûé_ãðàäèåíò_3" x1="116.69" y1="104.13" x2="116.69" y2="22.06" gradientUnits="userSpaceOnUse"><stop offset="0" stop-color="#c0bff6"/><stop offset="0.29" stop-color="#c5c4f7"/><stop offset="0.64" stop-color="#d3d2f9"/><stop offset="1" stop-color="#e9e9fd"/></linearGradient><filter id="luminosity-noclip-4" x="66.62" y="1.11" width="37.96" height="32.21" filterUnits="userSpaceOnUse" color-interpolation-filters="sRGB"><feFlood flood-color="#fff" result="bg"/><feBlend in="SourceGraphic" in2="bg"/></filter><mask id="mask-4" x="66.62" y="1.11" width="37.96" height="32.21" maskUnits="userSpaceOnUse"><g class="cls-1"><path class="cls-2" d="M90.52,1.11H87.86L67,13.16c-.43.26-.48.64-.1.85l1,.59,32.43,18.72,4.26,0Z"/></g></mask><linearGradient id="Áåçûìÿííûé_ãðàäèåíò_14" x1="72.52" y1="17.22" x2="110.48" y2="17.22" gradientUnits="userSpaceOnUse"><stop offset="0" stop-color="#e9e9fd"/><stop offset="0.04" stop-color="#d3d5f7"/><stop offset="0.11" stop-color="#b2b6ef"/><stop offset="0.18" stop-color="#969be7"/><stop offset="0.27" stop-color="#7f86e1"/><stop offset="0.36" stop-color="#6d75dd"/><stop offset="0.48" stop-color="#606ad9"/><stop offset="0.64" stop-color="#5963d8"/><stop offset="1" stop-color="#5761d7"/></linearGradient><linearGradient id="Áåçûìÿííûé_ãðàäèåíò_24" x1="70.85" y1="17.86" x2="121.66" y2="17.86" gradientUnits="userSpaceOnUse"><stop offset="0" stop-color="#5761d7"/><stop offset="0.18" stop-color="#5c66d9"/><stop offset="0.39" stop-color="#6a73df"/><stop offset="0.61" stop-color="#8289e8"/><stop offset="0.85" stop-color="#a3a7f5"/><stop offset="1" stop-color="#bcbeff"/></linearGradient><linearGradient id="Áåçûìÿííûé_ãðàäèåíò_3-2" x1="104.58" y1="26.93" x2="124.26" y2="26.93" xlink:href="#Áåçûìÿííûé_ãðàäèåíò_3"/><linearGradient id="Áåçûìÿííûé_ãðàäèåíò_3-3" x1="70.85" y1="16.53" x2="124.26" y2="16.53" xlink:href="#Áåçûìÿííûé_ãðàäèåíò_3"/><linearGradient id="Áåçûìÿííûé_ãðàäèåíò_24-2" x1="82.56" y1="9.08" x2="88.84" y2="9.08" xlink:href="#Áåçûìÿííûé_ãðàäèåíò_24"/><linearGradient id="Áåçûìÿííûé_ãðàäèåíò_24-3" x1="84.19" y1="10.02" x2="90.47" y2="10.02" xlink:href="#Áåçûìÿííûé_ãðàäèåíò_24"/><linearGradient id="Áåçûìÿííûé_ãðàäèåíò_24-4" x1="85.82" y1="10.96" x2="92.1" y2="10.96" xlink:href="#Áåçûìÿííûé_ãðàäèåíò_24"/><linearGradient id="Áåçûìÿííûé_ãðàäèåíò_24-5" x1="87.45" y1="11.9" x2="93.73" y2="11.9" xlink:href="#Áåçûìÿííûé_ãðàäèåíò_24"/><linearGradient id="Áåçûìÿííûé_ãðàäèåíò_24-6" x1="92.22" y1="14.67" x2="98.5" y2="14.67" xlink:href="#Áåçûìÿííûé_ãðàäèåíò_24"/><linearGradient id="Áåçûìÿííûé_ãðàäèåíò_24-7" x1="93.85" y1="15.61" x2="100.14" y2="15.61" xlink:href="#Áåçûìÿííûé_ãðàäèåíò_24"/><linearGradient id="Áåçûìÿííûé_ãðàäèåíò_24-8" x1="95.48" y1="16.55" x2="101.77" y2="16.55" xlink:href="#Áåçûìÿííûé_ãðàäèåíò_24"/><linearGradient id="Áåçûìÿííûé_ãðàäèåíò_24-9" x1="97.11" y1="17.49" x2="103.4" y2="17.49" xlink:href="#Áåçûìÿííûé_ãðàäèåíò_24"/><linearGradient id="Áåçûìÿííûé_ãðàäèåíò_24-10" x1="101.88" y1="20.26" x2="108.17" y2="20.26" xlink:href="#Áåçûìÿííûé_ãðàäèåíò_24"/><linearGradient id="Áåçûìÿííûé_ãðàäèåíò_24-11" x1="103.51" y1="21.2" x2="109.8" y2="21.2" xlink:href="#Áåçûìÿííûé_ãðàäèåíò_24"/><linearGradient id="Áåçûìÿííûé_ãðàäèåíò_24-12" x1="105.15" y1="22.14" x2="111.43" y2="22.14" xlink:href="#Áåçûìÿííûé_ãðàäèåíò_24"/><linearGradient id="Áåçûìÿííûé_ãðàäèåíò_24-13" x1="106.78" y1="23.08" x2="113.06" y2="23.08" xlink:href="#Áåçûìÿííûé_ãðàäèåíò_24"/><linearGradient id="Áåçûìÿííûé_ãðàäèåíò_3-4" x1="100.66" y1="36.35" x2="102.27" y2="36.35" xlink:href="#Áåçûìÿííûé_ãðàäèåíò_3"/><linearGradient id="Áåçûìÿííûé_ãðàäèåíò_24-14" x1="100.47" y1="36.52" x2="101.8" y2="36.52" xlink:href="#Áåçûìÿííûé_ãðàäèåíò_24"/><linearGradient id="Áåçûìÿííûé_ãðàäèåíò_3-5" x1="67.76" y1="17.46" x2="69.37" y2="17.46" xlink:href="#Áåçûìÿííûé_ãðàäèåíò_3"/><linearGradient id="Áåçûìÿííûé_ãðàäèåíò_24-15" x1="67.56" y1="17.63" x2="68.9" y2="17.63" xlink:href="#Áåçûìÿííûé_ãðàäèåíò_24"/><linearGradient id="Áåçûìÿííûé_ãðàäèåíò_3-6" x1="100.66" y1="100.33" x2="102.27" y2="100.33" xlink:href="#Áåçûìÿííûé_ãðàäèåíò_3"/><linearGradient id="Áåçûìÿííûé_ãðàäèåíò_24-16" x1="100.47" y1="100.51" x2="101.8" y2="100.51" xlink:href="#Áåçûìÿííûé_ãðàäèåíò_24"/><linearGradient id="Áåçûìÿííûé_ãðàäèåíò_3-7" x1="100.67" y1="100.46" x2="102.27" y2="100.46" xlink:href="#Áåçûìÿííûé_ãðàäèåíò_3"/><linearGradient id="Áåçûìÿííûé_ãðàäèåíò_24-17" x1="100.47" y1="100.46" x2="101.8" y2="100.46" xlink:href="#Áåçûìÿííûé_ãðàäèåíò_24"/><linearGradient id="Áåçûìÿííûé_ãðàäèåíò_3-8" x1="67.76" y1="81.44" x2="69.37" y2="81.44" xlink:href="#Áåçûìÿííûé_ãðàäèåíò_3"/><linearGradient id="Áåçûìÿííûé_ãðàäèåíò_24-18" x1="67.56" y1="81.62" x2="68.9" y2="81.62" xlink:href="#Áåçûìÿííûé_ãðàäèåíò_24"/><linearGradient id="Áåçûìÿííûé_ãðàäèåíò_3-9" x1="67.76" y1="81.57" x2="69.37" y2="81.57" xlink:href="#Áåçûìÿííûé_ãðàäèåíò_3"/><linearGradient id="Áåçûìÿííûé_ãðàäèåíò_24-19" x1="67.56" y1="81.57" x2="68.9" y2="81.57" xlink:href="#Áåçûìÿííûé_ãðàäèåíò_24"/><linearGradient id="Áåçûìÿííûé_ãðàäèåíò_3-10" x1="85.76" y1="123.55" x2="85.76" y2="41.48" xlink:href="#Áåçûìÿííûé_ãðàäèåíò_3"/><filter id="luminosity-noclip-5" x="35.69" y="20.53" width="37.96" height="32.21" filterUnits="userSpaceOnUse" color-interpolation-filters="sRGB"><feFlood flood-color="#fff" result="bg"/><feBlend in="SourceGraphic" in2="bg"/></filter><mask id="mask-5" x="35.69" y="20.53" width="37.96" height="32.21" maskUnits="userSpaceOnUse"><g class="cls-3"><path class="cls-4" d="M59.59,20.53H56.93L36.05,32.59c-.43.25-.48.63-.1.85L37,34,69.39,52.74l4.26,0Z"/></g></mask><linearGradient id="Áåçûìÿííûé_ãðàäèåíò_14-2" x1="41.59" y1="36.64" x2="79.55" y2="36.64" xlink:href="#Áåçûìÿííûé_ãðàäèåíò_14"/><linearGradient id="Áåçûìÿííûé_ãðàäèåíò_24-20" x1="39.92" y1="37.28" x2="90.73" y2="37.28" xlink:href="#Áåçûìÿííûé_ãðàäèåíò_24"/><linearGradient id="Áåçûìÿííûé_ãðàäèåíò_3-11" x1="73.65" y1="46.35" x2="93.33" y2="46.35" xlink:href="#Áåçûìÿííûé_ãðàäèåíò_3"/><linearGradient id="Áåçûìÿííûé_ãðàäèåíò_3-12" x1="39.92" y1="35.95" x2="93.33" y2="35.95" xlink:href="#Áåçûìÿííûé_ãðàäèåíò_3"/><linearGradient id="Áåçûìÿííûé_ãðàäèåíò_24-21" x1="51.63" y1="28.5" x2="57.91" y2="28.5" xlink:href="#Áåçûìÿííûé_ãðàäèåíò_24"/><linearGradient id="Áåçûìÿííûé_ãðàäèåíò_24-22" x1="53.26" y1="29.44" x2="59.54" y2="29.44" xlink:href="#Áåçûìÿííûé_ãðàäèåíò_24"/><linearGradient id="Áåçûìÿííûé_ãðàäèåíò_24-23" x1="54.89" y1="30.38" x2="61.17" y2="30.38" xlink:href="#Áåçûìÿííûé_ãðàäèåíò_24"/><linearGradient id="Áåçûìÿííûé_ãðàäèåíò_24-24" x1="56.52" y1="31.32" x2="62.8" y2="31.32" xlink:href="#Áåçûìÿííûé_ãðàäèåíò_24"/><linearGradient id="Áåçûìÿííûé_ãðàäèåíò_24-25" x1="61.29" y1="34.09" x2="67.57" y2="34.09" xlink:href="#Áåçûìÿííûé_ãðàäèåíò_24"/><linearGradient id="Áåçûìÿííûé_ãðàäèåíò_24-26" x1="62.92" y1="35.03" x2="69.2" y2="35.03" xlink:href="#Áåçûìÿííûé_ãðàäèåíò_24"/><linearGradient id="Áåçûìÿííûé_ãðàäèåíò_24-27" x1="64.55" y1="35.97" x2="70.84" y2="35.97" xlink:href="#Áåçûìÿííûé_ãðàäèåíò_24"/><linearGradient id="Áåçûìÿííûé_ãðàäèåíò_24-28" x1="66.18" y1="36.91" x2="72.47" y2="36.91" xlink:href="#Áåçûìÿííûé_ãðàäèåíò_24"/><linearGradient id="Áåçûìÿííûé_ãðàäèåíò_24-29" x1="70.95" y1="39.68" x2="77.24" y2="39.68" xlink:href="#Áåçûìÿííûé_ãðàäèåíò_24"/><linearGradient id="Áåçûìÿííûé_ãðàäèåíò_24-30" x1="72.58" y1="40.62" x2="78.87" y2="40.62" xlink:href="#Áåçûìÿííûé_ãðàäèåíò_24"/><linearGradient id="Áåçûìÿííûé_ãðàäèåíò_24-31" x1="74.22" y1="41.56" x2="80.5" y2="41.56" xlink:href="#Áåçûìÿííûé_ãðàäèåíò_24"/><linearGradient id="Áåçûìÿííûé_ãðàäèåíò_24-32" x1="75.85" y1="42.5" x2="82.13" y2="42.5" xlink:href="#Áåçûìÿííûé_ãðàäèåíò_24"/><linearGradient id="Áåçûìÿííûé_ãðàäèåíò_3-13" x1="69.73" y1="55.77" x2="71.34" y2="55.77" xlink:href="#Áåçûìÿííûé_ãðàäèåíò_3"/><linearGradient id="Áåçûìÿííûé_ãðàäèåíò_24-33" x1="69.54" y1="55.94" x2="70.87" y2="55.94" xlink:href="#Áåçûìÿííûé_ãðàäèåíò_24"/><linearGradient id="Áåçûìÿííûé_ãðàäèåíò_3-14" x1="36.83" y1="36.88" x2="38.44" y2="36.88" xlink:href="#Áåçûìÿííûé_ãðàäèåíò_3"/><linearGradient id="Áåçûìÿííûé_ãðàäèåíò_24-34" x1="36.63" y1="37.05" x2="37.96" y2="37.05" xlink:href="#Áåçûìÿííûé_ãðàäèåíò_24"/><linearGradient id="Áåçûìÿííûé_ãðàäèåíò_3-15" x1="69.73" y1="119.75" x2="71.34" y2="119.75" xlink:href="#Áåçûìÿííûé_ãðàäèåíò_3"/><linearGradient id="Áåçûìÿííûé_ãðàäèåíò_24-35" x1="69.54" y1="119.93" x2="70.87" y2="119.93" xlink:href="#Áåçûìÿííûé_ãðàäèåíò_24"/><linearGradient id="Áåçûìÿííûé_ãðàäèåíò_3-16" x1="69.73" y1="119.88" x2="71.34" y2="119.88" xlink:href="#Áåçûìÿííûé_ãðàäèåíò_3"/><linearGradient id="Áåçûìÿííûé_ãðàäèåíò_24-36" x1="69.54" y1="119.88" x2="70.87" y2="119.88" xlink:href="#Áåçûìÿííûé_ãðàäèåíò_24"/><linearGradient id="Áåçûìÿííûé_ãðàäèåíò_3-17" x1="36.83" y1="100.86" x2="38.44" y2="100.86" xlink:href="#Áåçûìÿííûé_ãðàäèåíò_3"/><linearGradient id="Áåçûìÿííûé_ãðàäèåíò_24-37" x1="36.63" y1="101.04" x2="37.96" y2="101.04" xlink:href="#Áåçûìÿííûé_ãðàäèåíò_24"/><linearGradient id="Áåçûìÿííûé_ãðàäèåíò_3-18" x1="36.83" y1="100.99" x2="38.44" y2="100.99" xlink:href="#Áåçûìÿííûé_ãðàäèåíò_3"/><linearGradient id="Áåçûìÿííûé_ãðàäèåíò_24-38" x1="36.63" y1="100.99" x2="37.96" y2="100.99" xlink:href="#Áåçûìÿííûé_ãðàäèåíò_24"/><linearGradient id="Áåçûìÿííûé_ãðàäèåíò_3-19" x1="54.83" y1="142.97" x2="54.83" y2="60.9" xlink:href="#Áåçûìÿííûé_ãðàäèåíò_3"/><filter id="luminosity-noclip-6" x="4.76" y="39.95" width="37.96" height="32.21" filterUnits="userSpaceOnUse" color-interpolation-filters="sRGB"><feFlood flood-color="#fff" result="bg"/><feBlend in="SourceGraphic" in2="bg"/></filter><mask id="mask-6" x="4.76" y="39.95" width="37.96" height="32.21" maskUnits="userSpaceOnUse"><g class="cls-5"><path class="cls-6" d="M28.66,40H26L5.12,52c-.44.25-.48.63-.11.85l1,.58L38.46,72.16l4.26,0Z"/></g></mask><linearGradient id="Áåçûìÿííûé_ãðàäèåíò_14-3" x1="10.66" y1="56.06" x2="48.62" y2="56.06" xlink:href="#Áåçûìÿííûé_ãðàäèåíò_14"/><linearGradient id="Áåçûìÿííûé_ãðàäèåíò_24-39" x1="8.99" y1="56.7" x2="59.8" y2="56.7" xlink:href="#Áåçûìÿííûé_ãðàäèåíò_24"/><linearGradient id="Áåçûìÿííûé_ãðàäèåíò_3-20" x1="42.72" y1="65.77" x2="62.39" y2="65.77" xlink:href="#Áåçûìÿííûé_ãðàäèåíò_3"/><linearGradient id="Áåçûìÿííûé_ãðàäèåíò_3-21" x1="8.99" y1="55.37" x2="62.39" y2="55.37" xlink:href="#Áåçûìÿííûé_ãðàäèåíò_3"/><linearGradient id="Áåçûìÿííûé_ãðàäèåíò_24-40" x1="20.69" y1="47.92" x2="26.98" y2="47.92" xlink:href="#Áåçûìÿííûé_ãðàäèåíò_24"/><linearGradient id="Áåçûìÿííûé_ãðàäèåíò_24-41" x1="22.33" y1="48.86" x2="28.61" y2="48.86" xlink:href="#Áåçûìÿííûé_ãðàäèåíò_24"/><linearGradient id="Áåçûìÿííûé_ãðàäèåíò_24-42" x1="23.96" y1="49.8" x2="30.24" y2="49.8" xlink:href="#Áåçûìÿííûé_ãðàäèåíò_24"/><linearGradient id="Áåçûìÿííûé_ãðàäèåíò_24-43" x1="25.59" y1="50.74" x2="31.87" y2="50.74" xlink:href="#Áåçûìÿííûé_ãðàäèåíò_24"/><linearGradient id="Áåçûìÿííûé_ãðàäèåíò_24-44" x1="30.36" y1="53.51" x2="36.64" y2="53.51" xlink:href="#Áåçûìÿííûé_ãðàäèåíò_24"/><linearGradient id="Áåçûìÿííûé_ãðàäèåíò_24-45" x1="31.99" y1="54.45" x2="38.27" y2="54.45" xlink:href="#Áåçûìÿííûé_ãðàäèåíò_24"/><linearGradient id="Áåçûìÿííûé_ãðàäèåíò_24-46" x1="33.62" y1="55.39" x2="39.9" y2="55.39" xlink:href="#Áåçûìÿííûé_ãðàäèåíò_24"/><linearGradient id="Áåçûìÿííûé_ãðàäèåíò_24-47" x1="35.25" y1="56.33" x2="41.54" y2="56.33" xlink:href="#Áåçûìÿííûé_ãðàäèåíò_24"/><linearGradient id="Áåçûìÿííûé_ãðàäèåíò_24-48" x1="40.02" y1="59.1" x2="46.31" y2="59.1" xlink:href="#Áåçûìÿííûé_ãðàäèåíò_24"/><linearGradient id="Áåçûìÿííûé_ãðàäèåíò_24-49" x1="41.65" y1="60.04" x2="47.94" y2="60.04" xlink:href="#Áåçûìÿííûé_ãðàäèåíò_24"/><linearGradient id="Áåçûìÿííûé_ãðàäèåíò_24-50" x1="43.28" y1="60.98" x2="49.57" y2="60.98" xlink:href="#Áåçûìÿííûé_ãðàäèåíò_24"/><linearGradient id="Áåçûìÿííûé_ãðàäèåíò_24-51" x1="44.92" y1="61.92" x2="51.2" y2="61.92" xlink:href="#Áåçûìÿííûé_ãðàäèåíò_24"/><linearGradient id="Áåçûìÿííûé_ãðàäèåíò_3-22" x1="38.8" y1="75.19" x2="40.41" y2="75.19" xlink:href="#Áåçûìÿííûé_ãðàäèåíò_3"/><linearGradient id="Áåçûìÿííûé_ãðàäèåíò_24-52" x1="38.61" y1="75.36" x2="39.94" y2="75.36" xlink:href="#Áåçûìÿííûé_ãðàäèåíò_24"/><linearGradient id="Áåçûìÿííûé_ãðàäèåíò_3-23" x1="5.9" y1="56.3" x2="7.51" y2="56.3" xlink:href="#Áåçûìÿííûé_ãðàäèåíò_3"/><linearGradient id="Áåçûìÿííûé_ãðàäèåíò_24-53" x1="5.7" y1="56.47" x2="7.03" y2="56.47" xlink:href="#Áåçûìÿííûé_ãðàäèåíò_24"/><linearGradient id="Áåçûìÿííûé_ãðàäèåíò_3-24" x1="38.8" y1="139.17" x2="40.41" y2="139.17" xlink:href="#Áåçûìÿííûé_ãðàäèåíò_3"/><linearGradient id="Áåçûìÿííûé_ãðàäèåíò_24-54" x1="38.61" y1="139.35" x2="39.94" y2="139.35" xlink:href="#Áåçûìÿííûé_ãðàäèåíò_24"/><linearGradient id="Áåçûìÿííûé_ãðàäèåíò_3-25" x1="38.8" y1="139.3" x2="40.41" y2="139.3" xlink:href="#Áåçûìÿííûé_ãðàäèåíò_3"/><linearGradient id="Áåçûìÿííûé_ãðàäèåíò_24-55" x1="38.61" y1="139.3" x2="39.94" y2="139.3" xlink:href="#Áåçûìÿííûé_ãðàäèåíò_24"/><linearGradient id="Áåçûìÿííûé_ãðàäèåíò_3-26" x1="5.9" y1="120.28" x2="7.51" y2="120.28" xlink:href="#Áåçûìÿííûé_ãðàäèåíò_3"/><linearGradient id="Áåçûìÿííûé_ãðàäèåíò_24-56" x1="5.7" y1="120.46" x2="7.03" y2="120.46" xlink:href="#Áåçûìÿííûé_ãðàäèåíò_24"/><linearGradient id="Áåçûìÿííûé_ãðàäèåíò_3-27" x1="5.9" y1="120.41" x2="7.51" y2="120.41" xlink:href="#Áåçûìÿííûé_ãðàäèåíò_3"/><linearGradient id="Áåçûìÿííûé_ãðàäèåíò_24-57" x1="5.7" y1="120.41" x2="7.03" y2="120.41" xlink:href="#Áåçûìÿííûé_ãðàäèåíò_24"/></defs><title>Asset 1</title><g id="Layer_2" data-name="Layer 2"><g id="Ñëîé_1" data-name="Ñëîé 1"><path class="cls-7" d="M58.14,32.47a4.51,4.51,0,0,1-2.21-.5L38.21,21.73a1.63,1.63,0,0,1-.94-1.39,2.19,2.19,0,0,1,1.28-1.75l17-9.84a5.61,5.61,0,0,1,5.05-.2L78.36,18.79a1.65,1.65,0,0,1,.94,1.39A2.19,2.19,0,0,1,78,21.93L61,31.77A5.91,5.91,0,0,1,58.14,32.47Zm.29-24a5.43,5.43,0,0,0-2.65.66l-17,9.83a1.83,1.83,0,0,0-1.08,1.41,1.27,1.27,0,0,0,.74,1.05L56.13,31.62a5.18,5.18,0,0,0,4.65-.2l17-9.83a1.84,1.84,0,0,0,1.09-1.41,1.27,1.27,0,0,0-.74-1.05L60.43,8.9A4,4,0,0,0,58.43,8.44Z"/><path class="cls-7" d="M16,33.63a2.13,2.13,0,0,1-1.06-.25L6.8,28.71A.83.83,0,0,1,6.32,28a1.1,1.1,0,0,1,.64-.9l7.77-4.48a2.64,2.64,0,0,1,2.41-.1l8.09,4.67a.85.85,0,0,1,.48.73,1.11,1.11,0,0,1-.64.9L17.3,33.29A2.71,2.71,0,0,1,16,33.63ZM15.09,33a2.27,2.27,0,0,0,2-.1l7.77-4.48c.27-.16.44-.36.44-.55a.47.47,0,0,0-.28-.38l-8.09-4.67a2.27,2.27,0,0,0-2,.09L7.16,27.44c-.28.16-.44.36-.44.55a.48.48,0,0,0,.28.38Z"/><path class="cls-7" d="M105.85,113a2,2,0,0,1-1-.23L62.41,88.3a1,1,0,0,1-.55-.87,1.21,1.21,0,0,1,.67-1L88.05,71.7a2.36,2.36,0,0,1,2.19-.07l42.45,24.51a1,1,0,0,1,.55.87,1.17,1.17,0,0,1-.67,1l-25.52,14.74A2.48,2.48,0,0,1,105.85,113ZM89.26,71.79a2.16,2.16,0,0,0-1,.25L62.73,86.78a.8.8,0,0,0-.47.65.63.63,0,0,0,.35.52l42.45,24.51a2.11,2.11,0,0,0,1.8-.07l25.51-14.73a.81.81,0,0,0,.47-.65.61.61,0,0,0-.35-.53L90,72A1.5,1.5,0,0,0,89.26,71.79Z"/><path class="cls-8" d="M104.44,31.84h4.11l-1-2.23-40.95-16V82s0,0,0,0v.06h0a.44.44,0,0,0,.25.33L104.21,104l.23.1Z"/><path class="cls-9" d="M128.48,22.06,104.92,35.5V76.66h0v27.48h0a1.63,1.63,0,0,0,.76-.21l22.44-13a.65.65,0,0,0,.36-.47h0Z"/><path class="cls-10" d="M103.23,14.93v88.49l1,.56a1.3,1.3,0,0,0,.7.15c.27,0,.28-.16.5-.29l.21-.08-.22-10.5V76.81l.49-61.88Z"/><path class="cls-11" d="M105.89,93.4V35l-1,.55V76.66h0v27.48h0l.17,0h0a1.36,1.36,0,0,0,.36-.1h0l.17-.09.21-.12Z"/><g class="cls-12"><polygon class="cls-13" points="68.47 17.39 101.37 36.39 101.37 100.38 68.47 81.38 68.47 17.39"/></g><g class="cls-12"><polygon class="cls-13" points="66.62 72.15 103.23 47.64 103.23 35 66.62 13.63 66.62 72.15"/></g><path class="cls-14" d="M104.21,35.57,66.88,14c-.38-.21-.33-.59.1-.85L89.42.21A1.65,1.65,0,0,1,90.9.15L128.23,21.7c.38.22.33.6-.11.85l-22.44,13A1.63,1.63,0,0,1,104.21,35.57Z"/><g class="cls-15"><path class="cls-16" d="M90.52,1.11H87.86L67,13.16c-.43.26-.48.64-.1.85l1,.59,32.43,18.72,4.26,0Z"/></g><polygon class="cls-17" points="90.52 2.44 72.59 12.8 70.85 12.47 70.85 13.8 104.58 33.27 121.66 21.66 90.52 2.44"/><polygon class="cls-18" points="124.26 20.59 124.26 21.91 104.58 33.27 104.58 31.95 124.26 20.59"/><polygon class="cls-19" points="104.58 31.95 70.85 12.47 90.52 1.11 124.26 20.59 104.58 31.95"/><polygon class="cls-20" points="83.44 11.05 82.9 10.74 82.95 10.49 87.93 7.59 88.62 7.92 88.49 8.13 83.44 11.05"/><polygon class="cls-21" points="87.96 7.82 88.49 8.13 88.84 7.93 87.96 7.42 82.56 10.54 82.9 10.74 87.96 7.82"/><polygon class="cls-20" points="85.07 11.99 84.53 11.68 84.58 11.43 89.56 8.53 90.25 8.86 90.13 9.07 85.07 11.99"/><polygon class="cls-22" points="89.59 8.76 90.13 9.07 90.47 8.87 89.59 8.36 84.19 11.48 84.53 11.68 89.59 8.76"/><polygon class="cls-20" points="86.7 12.93 86.16 12.62 86.21 12.37 91.19 9.47 91.89 9.8 91.76 10.01 86.7 12.93"/><polygon class="cls-23" points="91.22 9.7 91.76 10.01 92.1 9.81 91.22 9.3 85.82 12.42 86.17 12.62 91.22 9.7"/><polygon class="cls-20" points="88.33 13.87 87.8 13.56 87.84 13.31 92.82 10.41 93.52 10.74 93.39 10.95 88.33 13.87"/><polygon class="cls-24" points="92.85 10.64 93.39 10.95 93.73 10.75 92.85 10.24 87.45 13.36 87.8 13.56 92.85 10.64"/><polygon class="cls-20" points="93.1 16.64 92.56 16.33 92.61 16.08 97.59 13.18 98.29 13.51 98.16 13.72 93.1 16.64"/><polygon class="cls-25" points="97.62 13.41 98.16 13.72 98.5 13.52 97.62 13.01 92.22 16.13 92.57 16.33 97.62 13.41"/><polygon class="cls-20" points="94.73 17.58 94.2 17.27 94.24 17.02 99.23 14.12 99.92 14.45 99.79 14.66 94.73 17.58"/><polygon class="cls-26" points="99.25 14.35 99.79 14.66 100.14 14.46 99.25 13.95 93.85 17.07 94.2 17.27 99.25 14.35"/><polygon class="cls-20" points="96.36 18.52 95.83 18.21 95.87 17.96 100.86 15.05 101.55 15.38 101.42 15.6 96.36 18.52"/><polygon class="cls-27" points="100.88 15.29 101.42 15.6 101.77 15.4 100.88 14.89 95.48 18.01 95.83 18.21 100.88 15.29"/><polygon class="cls-20" points="98 19.46 97.46 19.15 97.5 18.89 102.49 15.99 103.18 16.32 103.05 16.54 98 19.46"/><polygon class="cls-28" points="102.51 16.23 103.05 16.54 103.4 16.34 102.51 15.83 97.11 18.95 97.46 19.15 102.51 16.23"/><polygon class="cls-20" points="102.77 22.23 102.23 21.92 102.27 21.67 107.26 18.77 107.95 19.09 107.82 19.31 102.77 22.23"/><polygon class="cls-29" points="107.28 19 107.82 19.31 108.17 19.11 107.28 18.6 101.88 21.72 102.23 21.92 107.28 19"/><polygon class="cls-20" points="104.4 23.17 103.86 22.86 103.9 22.61 108.89 19.7 109.58 20.03 109.45 20.25 104.4 23.17"/><polygon class="cls-30" points="108.92 19.94 109.45 20.25 109.8 20.05 108.92 19.54 103.52 22.66 103.86 22.86 108.92 19.94"/><polygon class="cls-20" points="106.03 24.11 105.49 23.8 105.54 23.54 110.52 20.64 111.21 20.97 111.08 21.19 106.03 24.11"/><polygon class="cls-31" points="110.55 20.88 111.08 21.19 111.43 20.99 110.55 20.48 105.15 23.6 105.49 23.8 110.55 20.88"/><polygon class="cls-20" points="107.66 25.05 107.12 24.73 107.17 24.48 112.15 21.58 112.84 21.91 112.72 22.13 107.66 25.05"/><polygon class="cls-32" points="112.18 21.82 112.72 22.13 113.06 21.93 112.18 21.42 106.78 24.54 107.12 24.73 112.18 21.82"/><path class="cls-33" d="M102.27,36.62a1.46,1.46,0,0,0-.66-1.15.43.43,0,0,0-.47,0h0l-.48.27h.3a.68.68,0,0,0,0,.14,1.47,1.47,0,0,0,.67,1.16l.14.06-.13.26.46-.27h0A.48.48,0,0,0,102.27,36.62Z"/><path class="cls-34" d="M101.8,36.9c0,.43-.3.6-.67.38a1.47,1.47,0,0,1-.66-1.15c0-.42.3-.59.66-.38A1.47,1.47,0,0,1,101.8,36.9Z"/><path class="cls-20" d="M101.52,36.74c0,.24-.17.34-.39.22a.84.84,0,0,1-.38-.66c0-.25.17-.35.38-.23A.85.85,0,0,1,101.52,36.74Z"/><path class="cls-35" d="M69.37,17.73a1.47,1.47,0,0,0-.67-1.15.45.45,0,0,0-.47,0h0l-.47.27h.29A.71.71,0,0,0,68,17a1.48,1.48,0,0,0,.66,1.15.47.47,0,0,0,.15.06l-.14.26.46-.27h0A.48.48,0,0,0,69.37,17.73Z"/><path class="cls-36" d="M68.9,18c0,.43-.3.6-.67.39a1.49,1.49,0,0,1-.67-1.16c0-.42.3-.59.67-.38A1.47,1.47,0,0,1,68.9,18Z"/><path class="cls-20" d="M68.61,17.85c0,.24-.17.34-.38.22a.84.84,0,0,1-.38-.66c0-.25.17-.35.38-.23A.86.86,0,0,1,68.61,17.85Z"/><path class="cls-37" d="M102.27,100.6a1.48,1.48,0,0,0-.66-1.16.48.48,0,0,0-.47,0h0l-.48.27h0a.49.49,0,0,1,.46,0,1.47,1.47,0,0,1,.67,1.15.47.47,0,0,1-.18.42h0l.46-.27h0A.47.47,0,0,0,102.27,100.6Z"/><path class="cls-38" d="M101.61,101l-.14-.09c-.06.1-.19.13-.34,0a.84.84,0,0,1-.38-.66c0-.17.09-.27.21-.27a1.11,1.11,0,0,1,0-.17.77.77,0,0,1,0-.15h-.29a.46.46,0,0,0-.2.44,1.48,1.48,0,0,0,.66,1.15.46.46,0,0,0,.49,0l.13-.25Z"/><path class="cls-39" d="M101.8,100.87a1.47,1.47,0,0,0-.67-1.15.49.49,0,0,0-.46,0H101a.77.77,0,0,0,0,.15,1.11,1.11,0,0,0,0,.17.3.3,0,0,1,.17,0,.83.83,0,0,1,.39.66.35.35,0,0,1,0,.18l.14.09.14.06-.13.25A.47.47,0,0,0,101.8,100.87Z"/><path class="cls-40" d="M101.8,100.87a1.47,1.47,0,0,0-.67-1.15.49.49,0,0,0-.46,0H101a.77.77,0,0,0,0,.15,1.11,1.11,0,0,0,0,.17.3.3,0,0,1,.17,0,.83.83,0,0,1,.39.66.35.35,0,0,1,0,.18l.14.09.14.06-.13.25A.47.47,0,0,0,101.8,100.87Z"/><path class="cls-20" d="M100.75,100.27a.84.84,0,0,0,.38.66c.15.09.28.06.34,0A1.55,1.55,0,0,1,101,100C100.84,100,100.75,100.1,100.75,100.27Z"/><path class="cls-20" d="M101.47,100.89a.35.35,0,0,0,0-.18.83.83,0,0,0-.39-.66.3.3,0,0,0-.17,0A1.55,1.55,0,0,0,101.47,100.89Z"/><path class="cls-41" d="M68.7,80.55a.48.48,0,0,0-.47,0h0l-.47.27h0a.51.51,0,0,1,.47,0A1.47,1.47,0,0,1,68.9,82a.45.45,0,0,1-.19.42h0l.46-.27h0a.47.47,0,0,0,.2-.43A1.49,1.49,0,0,0,68.7,80.55Z"/><path class="cls-42" d="M68.7,82.09,68.57,82c-.06.1-.19.13-.34,0a.84.84,0,0,1-.38-.66c0-.17.08-.27.2-.27a1,1,0,0,1,0-.17.76.76,0,0,1,0-.15h-.29a.48.48,0,0,0-.2.44,1.47,1.47,0,0,0,.67,1.15.45.45,0,0,0,.48,0l.14-.24Z"/><path class="cls-43" d="M68.9,82a1.47,1.47,0,0,0-.67-1.15.51.51,0,0,0-.47,0h.29a.76.76,0,0,0,0,.15,1,1,0,0,0,0,.17.31.31,0,0,1,.18,0,.84.84,0,0,1,.38.66.34.34,0,0,1,0,.18l.13.09.15.07-.14.24A.45.45,0,0,0,68.9,82Z"/><path class="cls-44" d="M68.9,82a1.47,1.47,0,0,0-.67-1.15.51.51,0,0,0-.47,0h.29a.76.76,0,0,0,0,.15,1,1,0,0,0,0,.17.31.31,0,0,1,.18,0,.84.84,0,0,1,.38.66.34.34,0,0,1,0,.18l.13.09.15.07-.14.24A.45.45,0,0,0,68.9,82Z"/><path class="cls-20" d="M67.85,81.38a.84.84,0,0,0,.38.66c.15.09.28.06.34,0a1.56,1.56,0,0,1-.52-.89C67.93,81.11,67.85,81.21,67.85,81.38Z"/><path class="cls-20" d="M68.57,82a.34.34,0,0,0,0-.18.84.84,0,0,0-.38-.66.31.31,0,0,0-.18,0A1.56,1.56,0,0,0,68.57,82Z"/><polygon class="cls-13" points="108.04 38.84 125.02 29.05 124.98 87.79 108 97.58 108.04 38.84"/><polygon class="cls-45" points="124.98 87.79 108 97.58 108 98.84 126.07 88.42 126.11 28.43 125.02 29.05 124.98 87.79"/><polygon class="cls-46" points="121.52 59.44 122.93 58.63 122.93 60.25 121.52 61.06 121.52 59.44"/><polygon class="cls-47" points="118.71 61.06 120.11 60.25 120.11 61.87 118.71 62.68 118.71 61.06"/><polygon class="cls-48" points="115.89 62.68 117.3 61.87 117.3 63.49 115.89 64.3 115.89 62.68"/><polygon class="cls-46" points="113.08 64.3 114.49 63.49 114.48 65.11 113.08 65.92 113.08 64.3"/><polygon class="cls-48" points="110.27 65.92 111.67 65.11 111.67 66.73 110.27 67.54 110.27 65.92"/><polygon class="cls-46" points="121.53 56.18 122.93 55.37 122.93 56.99 121.52 57.8 121.53 56.18"/><polygon class="cls-46" points="118.71 57.8 120.12 56.99 120.12 58.61 118.71 59.42 118.71 57.8"/><polygon class="cls-46" points="115.9 59.42 117.31 58.61 117.3 60.23 115.9 61.04 115.9 59.42"/><polygon class="cls-46" points="113.08 61.04 114.49 60.23 114.49 61.85 113.08 62.66 113.08 61.04"/><polygon class="cls-46" points="110.27 62.66 111.68 61.85 111.67 63.47 110.27 64.28 110.27 62.66"/><polygon class="cls-46" points="121.53 52.92 122.94 52.1 122.93 53.73 121.53 54.54 121.53 52.92"/><polygon class="cls-46" points="118.72 54.54 120.12 53.73 120.12 55.35 118.71 56.16 118.72 54.54"/><polygon class="cls-46" points="115.9 56.16 117.31 55.35 117.31 56.97 115.9 57.78 115.9 56.16"/><polygon class="cls-47" points="113.09 57.78 114.49 56.97 114.49 58.59 113.09 59.4 113.09 57.78"/><polygon class="cls-48" points="110.27 59.4 111.68 58.59 111.68 60.21 110.27 61.02 110.27 59.4"/><polygon class="cls-48" points="121.53 49.66 122.94 48.84 122.94 50.47 121.53 51.28 121.53 49.66"/><polygon class="cls-48" points="118.72 51.28 120.13 50.47 120.12 52.09 118.72 52.9 118.72 51.28"/><polygon class="cls-47" points="115.91 52.9 117.31 52.09 117.31 53.71 115.9 54.52 115.91 52.9"/><polygon class="cls-46" points="113.09 54.52 114.5 53.71 114.5 55.33 113.09 56.14 113.09 54.52"/><polygon class="cls-46" points="110.28 56.14 111.68 55.33 111.68 56.95 110.28 57.76 110.28 56.14"/><polygon class="cls-46" points="121.54 46.4 122.94 45.59 122.94 47.21 121.53 48.02 121.54 46.4"/><polygon class="cls-46" points="118.72 48.02 120.13 47.2 120.13 48.83 118.72 49.64 118.72 48.02"/><polygon class="cls-46" points="115.91 49.64 117.31 48.83 117.31 50.45 115.91 51.26 115.91 49.64"/><polygon class="cls-46" points="113.09 51.26 114.5 50.45 114.5 52.07 113.09 52.88 113.09 51.26"/><polygon class="cls-46" points="110.28 52.88 111.69 52.07 111.69 53.69 110.28 54.5 110.28 52.88"/><polygon class="cls-46" points="121.54 43.13 122.95 42.33 122.94 43.95 121.54 44.76 121.54 43.13"/><polygon class="cls-46" points="118.73 44.76 120.13 43.95 120.13 45.57 118.72 46.38 118.73 44.76"/><polygon class="cls-48" points="115.91 46.38 117.32 45.57 117.32 47.19 115.91 48 115.91 46.38"/><polygon class="cls-46" points="113.1 48 114.5 47.19 114.5 48.81 113.1 49.62 113.1 48"/><polygon class="cls-47" points="110.28 49.62 111.69 48.81 111.69 50.43 110.28 51.24 110.28 49.62"/><polygon class="cls-46" points="121.54 39.88 122.95 39.06 122.95 40.69 121.54 41.5 121.54 39.88"/><polygon class="cls-46" points="118.73 41.49 120.14 40.69 120.13 42.31 118.73 43.12 118.73 41.49"/><polygon class="cls-48" points="115.92 43.12 117.32 42.3 117.32 43.93 115.91 44.74 115.92 43.12"/><polygon class="cls-46" points="113.1 44.74 114.51 43.93 114.51 45.55 113.1 46.36 113.1 44.74"/><polygon class="cls-46" points="110.29 46.36 111.69 45.55 111.69 47.17 110.29 47.98 110.29 46.36"/><polygon class="cls-46" points="121.55 36.61 122.95 35.8 122.95 37.43 121.55 38.24 121.55 36.61"/><polygon class="cls-48" points="118.73 38.23 120.14 37.42 120.14 39.05 118.73 39.86 118.73 38.23"/><polygon class="cls-46" points="115.92 39.85 117.33 39.05 117.32 40.67 115.92 41.48 115.92 39.85"/><polygon class="cls-46" points="113.11 41.48 114.51 40.67 114.51 42.29 113.1 43.1 113.11 41.48"/><polygon class="cls-46" points="110.29 43.1 111.7 42.29 111.7 43.91 110.29 44.72 110.29 43.1"/><polygon class="cls-46" points="121.55 33.35 122.96 32.54 122.95 34.17 121.55 34.98 121.55 33.35"/><polygon class="cls-47" points="118.74 34.98 120.14 34.16 120.14 35.79 118.73 36.6 118.74 34.98"/><polygon class="cls-46" points="115.92 36.59 117.33 35.78 117.33 37.41 115.92 38.22 115.92 36.59"/><polygon class="cls-46" points="113.11 38.22 114.52 37.41 114.51 39.03 113.11 39.84 113.11 38.22"/><polygon class="cls-46" points="110.3 39.84 111.7 39.03 111.7 40.65 110.29 41.46 110.3 39.84"/><polygon class="cls-46" points="121.53 85.25 122.93 84.44 122.93 86.07 121.52 86.88 121.53 85.25"/><polygon class="cls-46" points="118.71 86.87 120.12 86.06 120.12 87.69 118.71 88.5 118.71 86.87"/><polygon class="cls-46" points="115.9 88.5 117.31 87.69 117.3 89.31 115.9 90.12 115.9 88.5"/><polygon class="cls-46" points="113.08 90.11 114.49 89.31 114.49 90.93 113.08 91.74 113.08 90.11"/><polygon class="cls-46" points="110.27 91.74 111.68 90.93 111.67 92.55 110.27 93.36 110.27 91.74"/><polygon class="cls-46" points="121.53 81.99 122.94 81.18 122.93 82.81 121.53 83.62 121.53 81.99"/><polygon class="cls-46" points="118.72 83.61 120.12 82.8 120.12 84.43 118.71 85.24 118.72 83.61"/><polygon class="cls-46" points="115.9 85.23 117.31 84.42 117.31 86.05 115.9 86.86 115.9 85.23"/><polygon class="cls-47" points="113.09 86.86 114.49 86.05 114.49 87.67 113.09 88.48 113.09 86.86"/><polygon class="cls-48" points="110.27 88.48 111.68 87.67 111.68 89.29 110.27 90.1 110.27 88.48"/><polygon class="cls-48" points="121.53 78.73 122.94 77.92 122.94 79.55 121.53 80.36 121.53 78.73"/><polygon class="cls-48" points="118.72 80.35 120.13 79.54 120.12 81.17 118.72 81.98 118.72 80.35"/><polygon class="cls-47" points="115.91 81.97 117.31 81.16 117.31 82.79 115.9 83.6 115.91 81.97"/><polygon class="cls-46" points="113.09 83.59 114.5 82.78 114.5 84.41 113.09 85.22 113.09 83.59"/><polygon class="cls-46" points="110.28 85.22 111.68 84.41 111.68 86.03 110.28 86.84 110.28 85.22"/><polygon class="cls-46" points="121.54 75.47 122.94 74.66 122.94 76.29 121.53 77.1 121.54 75.47"/><polygon class="cls-46" points="118.72 77.09 120.13 76.28 120.13 77.91 118.72 78.72 118.72 77.09"/><polygon class="cls-46" points="115.91 78.71 117.31 77.9 117.31 79.53 115.91 80.34 115.91 78.71"/><polygon class="cls-46" points="113.09 80.33 114.5 79.52 114.5 81.15 113.09 81.96 113.09 80.33"/><polygon class="cls-46" points="110.28 81.95 111.69 81.14 111.69 82.77 110.28 83.58 110.28 81.95"/><polygon class="cls-46" points="121.54 72.21 122.95 71.4 122.94 73.03 121.54 73.84 121.54 72.21"/><polygon class="cls-46" points="118.73 73.83 120.13 73.02 120.13 74.65 118.72 75.46 118.73 73.83"/><polygon class="cls-48" points="115.91 75.45 117.32 74.64 117.32 76.27 115.91 77.08 115.91 75.45"/><polygon class="cls-46" points="113.1 77.07 114.5 76.26 114.5 77.89 113.1 78.7 113.1 77.07"/><polygon class="cls-47" points="110.28 78.69 111.69 77.89 111.69 79.51 110.28 80.32 110.28 78.69"/><polygon class="cls-46" points="121.54 68.95 122.95 68.14 122.95 69.77 121.54 70.58 121.54 68.95"/><polygon class="cls-46" points="118.73 70.57 120.14 69.76 120.13 71.39 118.73 72.2 118.73 70.57"/><polygon class="cls-48" points="115.92 72.19 117.32 71.38 117.32 73.01 115.91 73.82 115.92 72.19"/><polygon class="cls-46" points="113.1 73.81 114.51 73 114.51 74.63 113.1 75.44 113.1 73.81"/><polygon class="cls-46" points="110.29 75.44 111.69 74.62 111.69 76.25 110.29 77.06 110.29 75.44"/><polygon class="cls-46" points="121.55 65.69 122.95 64.88 122.95 66.51 121.55 67.32 121.55 65.69"/><polygon class="cls-48" points="118.73 67.31 120.14 66.5 120.14 68.13 118.73 68.94 118.73 67.31"/><polygon class="cls-46" points="115.92 68.93 117.33 68.12 117.32 69.75 115.92 70.56 115.92 68.93"/><polygon class="cls-46" points="113.11 70.55 114.51 69.74 114.51 71.37 113.1 72.18 113.11 70.55"/><polygon class="cls-46" points="110.29 72.17 111.7 71.36 111.7 72.99 110.29 73.8 110.29 72.17"/><polygon class="cls-46" points="121.55 62.43 122.96 61.62 122.95 63.25 121.55 64.06 121.55 62.43"/><polygon class="cls-47" points="118.74 64.05 120.14 63.24 120.14 64.87 118.73 65.68 118.74 64.05"/><polygon class="cls-46" points="115.92 65.67 117.33 64.86 117.33 66.49 115.92 67.3 115.92 65.67"/><polygon class="cls-46" points="113.11 67.29 114.52 66.48 114.51 68.11 113.11 68.92 113.11 67.29"/><polygon class="cls-46" points="110.3 68.91 111.7 68.1 111.7 69.73 110.29 70.54 110.3 68.91"/><path class="cls-7" d="M74.92,132.46a2,2,0,0,1-1-.23L31.48,107.72a1,1,0,0,1-.55-.87,1.21,1.21,0,0,1,.67-1L57.12,91.12a2.36,2.36,0,0,1,2.19-.07l42.45,24.51a1,1,0,0,1,.55.87,1.17,1.17,0,0,1-.67,1L76.12,132.16A2.48,2.48,0,0,1,74.92,132.46ZM58.33,91.21a2,2,0,0,0-1,.26L31.8,106.2a.8.8,0,0,0-.47.65.63.63,0,0,0,.35.52l42.45,24.51a2,2,0,0,0,1.79-.07l25.52-14.73a.81.81,0,0,0,.47-.65.61.61,0,0,0-.35-.53L59.11,91.4A1.5,1.5,0,0,0,58.33,91.21Z"/><path class="cls-8" d="M73.51,51.27h4.11l-1-2.24-40.94-16v68.47h0a.42.42,0,0,0,.25.33L73.28,123.4l.23.1Z"/><path class="cls-49" d="M97.55,41.48,74,54.92V96.08h0v27.48h0a1.63,1.63,0,0,0,.76-.21l22.44-13a.65.65,0,0,0,.36-.47h0Z"/><path class="cls-10" d="M72.3,34.35v88.49l1,.56a1.3,1.3,0,0,0,.7.15c.27,0,.28-.16.5-.29l.21-.08-.22-10.5V96.23L75,34.35Z"/><path class="cls-11" d="M75,112.82V54.37l-1,.55V96.08h0v27.48h0l.17,0h0a1.9,1.9,0,0,0,.36-.09h0l.17-.09.21-.12Z"/><g class="cls-12"><polygon class="cls-13" points="37.54 36.81 70.44 55.81 70.44 119.8 37.54 100.8 37.54 36.81"/></g><g class="cls-12"><polygon class="cls-13" points="35.69 91.57 72.3 67.06 72.3 54.42 35.69 33.05 35.69 91.57"/></g><path class="cls-14" d="M73.28,55,36,33.44c-.38-.22-.33-.6.1-.85l22.44-13A1.63,1.63,0,0,1,60,19.57L97.3,41.12c.37.22.33.6-.11.85l-22.44,13A1.63,1.63,0,0,1,73.28,55Z"/><g class="cls-50"><path class="cls-51" d="M59.59,20.53H56.93L36.05,32.59c-.43.25-.48.63-.1.85L37,34,69.39,52.74l4.26,0Z"/></g><polygon class="cls-52" points="59.59 21.86 41.66 32.22 39.92 31.89 39.92 33.22 73.65 52.7 90.73 41.09 59.59 21.86"/><polygon class="cls-53" points="93.33 40.01 93.33 41.34 73.65 52.7 73.65 51.37 93.33 40.01"/><polygon class="cls-54" points="73.65 51.37 39.92 31.89 59.59 20.53 93.33 40.01 73.65 51.37"/><polygon class="cls-20" points="52.51 30.47 51.97 30.16 52.02 29.91 57 27.01 57.69 27.34 57.56 27.55 52.51 30.47"/><polygon class="cls-55" points="57.03 27.25 57.56 27.55 57.91 27.36 57.03 26.84 51.63 29.96 51.97 30.16 57.03 27.25"/><polygon class="cls-20" points="54.14 31.41 53.6 31.1 53.65 30.85 58.63 27.95 59.32 28.28 59.19 28.49 54.14 31.41"/><polygon class="cls-56" points="58.66 28.18 59.19 28.49 59.54 28.29 58.66 27.78 53.26 30.9 53.6 31.1 58.66 28.18"/><polygon class="cls-20" points="55.77 32.35 55.23 32.04 55.28 31.79 60.26 28.89 60.95 29.22 60.83 29.43 55.77 32.35"/><polygon class="cls-57" points="60.29 29.12 60.83 29.43 61.17 29.23 60.29 28.72 54.89 31.84 55.23 32.04 60.29 29.12"/><polygon class="cls-20" points="57.4 33.29 56.86 32.98 56.91 32.73 61.89 29.83 62.59 30.16 62.46 30.37 57.4 33.29"/><polygon class="cls-58" points="61.92 30.06 62.46 30.37 62.8 30.17 61.92 29.66 56.52 32.78 56.87 32.98 61.92 30.06"/><polygon class="cls-20" points="62.17 36.06 61.63 35.75 61.68 35.5 66.66 32.6 67.36 32.93 67.23 33.14 62.17 36.06"/><polygon class="cls-59" points="66.69 32.83 67.23 33.14 67.57 32.94 66.69 32.43 61.29 35.55 61.63 35.75 66.69 32.83"/><polygon class="cls-20" points="63.8 37 63.27 36.69 63.31 36.44 68.3 33.54 68.99 33.87 68.86 34.08 63.8 37"/><polygon class="cls-60" points="68.32 33.77 68.86 34.08 69.2 33.88 68.32 33.37 62.92 36.49 63.27 36.69 68.32 33.77"/><polygon class="cls-20" points="65.43 37.94 64.9 37.63 64.94 37.38 69.93 34.48 70.62 34.81 70.49 35.02 65.43 37.94"/><polygon class="cls-61" points="69.95 34.71 70.49 35.02 70.84 34.82 69.95 34.31 64.55 37.43 64.9 37.63 69.95 34.71"/><polygon class="cls-20" points="67.07 38.88 66.53 38.57 66.57 38.32 71.56 35.41 72.25 35.74 72.12 35.96 67.07 38.88"/><polygon class="cls-62" points="71.58 35.65 72.12 35.96 72.47 35.76 71.58 35.25 66.18 38.37 66.53 38.57 71.58 35.65"/><polygon class="cls-20" points="71.84 41.65 71.3 41.34 71.34 41.09 76.33 38.19 77.02 38.52 76.89 38.73 71.84 41.65"/><polygon class="cls-63" points="76.35 38.42 76.89 38.73 77.24 38.53 76.35 38.02 70.95 41.14 71.3 41.34 76.35 38.42"/><polygon class="cls-20" points="73.47 42.59 72.93 42.28 72.97 42.03 77.96 39.13 78.65 39.45 78.52 39.67 73.47 42.59"/><polygon class="cls-64" points="77.98 39.36 78.52 39.67 78.87 39.47 77.98 38.96 72.58 42.08 72.93 42.28 77.98 39.36"/><polygon class="cls-20" points="75.1 43.53 74.56 43.22 74.61 42.97 79.59 40.06 80.28 40.39 80.15 40.61 75.1 43.53"/><polygon class="cls-65" points="79.62 40.3 80.15 40.61 80.5 40.41 79.62 39.9 74.22 43.02 74.56 43.22 79.62 40.3"/><polygon class="cls-20" points="76.73 44.47 76.19 44.16 76.24 43.9 81.22 41 81.91 41.33 81.78 41.55 76.73 44.47"/><polygon class="cls-66" points="81.25 41.24 81.78 41.55 82.13 41.35 81.25 40.84 75.85 43.96 76.19 44.16 81.25 41.24"/><path class="cls-67" d="M71.34,56a1.46,1.46,0,0,0-.66-1.15.45.45,0,0,0-.47,0h0l-.48.27H70a.68.68,0,0,0,0,.15,1.47,1.47,0,0,0,.67,1.15.42.42,0,0,0,.14.06l-.14.26.47-.27h0A.48.48,0,0,0,71.34,56Z"/><path class="cls-68" d="M70.87,56.32c0,.43-.3.6-.67.39a1.5,1.5,0,0,1-.66-1.16c0-.42.3-.59.66-.38A1.47,1.47,0,0,1,70.87,56.32Z"/><path class="cls-20" d="M70.59,56.16c0,.24-.17.34-.39.22a.84.84,0,0,1-.38-.66c0-.25.17-.35.38-.22A.81.81,0,0,1,70.59,56.16Z"/><path class="cls-69" d="M38.44,37.15A1.47,1.47,0,0,0,37.77,36a.48.48,0,0,0-.47,0h0l-.47.27h.29a.71.71,0,0,0,0,.15,1.48,1.48,0,0,0,.66,1.15.47.47,0,0,0,.15.06l-.14.26.46-.27h0A.48.48,0,0,0,38.44,37.15Z"/><path class="cls-70" d="M38,37.43c0,.43-.29.6-.66.39a1.49,1.49,0,0,1-.67-1.16c0-.42.3-.59.67-.38A1.46,1.46,0,0,1,38,37.43Z"/><path class="cls-20" d="M37.68,37.27c0,.24-.17.34-.38.22a.84.84,0,0,1-.38-.66c0-.25.17-.35.38-.22A.83.83,0,0,1,37.68,37.27Z"/><path class="cls-71" d="M71.34,120a1.48,1.48,0,0,0-.66-1.16.48.48,0,0,0-.47,0h0l-.48.27h0a.51.51,0,0,1,.47,0,1.47,1.47,0,0,1,.67,1.15.47.47,0,0,1-.18.42h0l.47-.27h0A.47.47,0,0,0,71.34,120Z"/><path class="cls-72" d="M70.68,120.4l-.14-.09c-.06.1-.19.13-.34,0a.84.84,0,0,1-.38-.66c0-.17.09-.27.21-.27a1.11,1.11,0,0,1,0-.17.77.77,0,0,1,0-.15h-.3a.48.48,0,0,0-.19.44,1.48,1.48,0,0,0,.66,1.15.46.46,0,0,0,.49,0l.13-.24Z"/><path class="cls-73" d="M70.87,120.29a1.47,1.47,0,0,0-.67-1.15.51.51,0,0,0-.47,0H70a.77.77,0,0,0,0,.15,1.11,1.11,0,0,0,0,.17.3.3,0,0,1,.17,0,.83.83,0,0,1,.39.66.35.35,0,0,1,0,.18l.14.09.14.07-.13.24A.47.47,0,0,0,70.87,120.29Z"/><path class="cls-74" d="M70.87,120.29a1.47,1.47,0,0,0-.67-1.15.51.51,0,0,0-.47,0H70a.77.77,0,0,0,0,.15,1.11,1.11,0,0,0,0,.17.3.3,0,0,1,.17,0,.83.83,0,0,1,.39.66.35.35,0,0,1,0,.18l.14.09.14.07-.13.24A.47.47,0,0,0,70.87,120.29Z"/><path class="cls-20" d="M69.82,119.69a.84.84,0,0,0,.38.66c.15.09.28.06.34,0a1.55,1.55,0,0,1-.51-.89C69.91,119.42,69.82,119.52,69.82,119.69Z"/><path class="cls-20" d="M70.54,120.31a.35.35,0,0,0,0-.18.83.83,0,0,0-.39-.66.3.3,0,0,0-.17,0A1.55,1.55,0,0,0,70.54,120.31Z"/><path class="cls-75" d="M37.77,100a.48.48,0,0,0-.47,0h0l-.47.28h0a.48.48,0,0,1,.47,0A1.46,1.46,0,0,1,38,101.4a.5.5,0,0,1-.18.43h0l.46-.27h0a.47.47,0,0,0,.2-.43A1.49,1.49,0,0,0,37.77,100Z"/><path class="cls-76" d="M37.77,101.51l-.13-.09a.23.23,0,0,1-.34,0,.84.84,0,0,1-.38-.66c0-.17.08-.27.2-.27a1,1,0,0,1,0-.17.61.61,0,0,1,0-.14h-.29a.45.45,0,0,0-.2.43,1.47,1.47,0,0,0,.67,1.15.47.47,0,0,0,.48,0l.14-.25Z"/><path class="cls-77" d="M38,101.4a1.46,1.46,0,0,0-.66-1.15.48.48,0,0,0-.47,0h.29a.61.61,0,0,0,0,.14,1,1,0,0,0,0,.17.31.31,0,0,1,.18,0,.84.84,0,0,1,.38.66.34.34,0,0,1,0,.18l.13.09.15.07-.14.25A.5.5,0,0,0,38,101.4Z"/><path class="cls-78" d="M38,101.4a1.46,1.46,0,0,0-.66-1.15.48.48,0,0,0-.47,0h.29a.61.61,0,0,0,0,.14,1,1,0,0,0,0,.17.31.31,0,0,1,.18,0,.84.84,0,0,1,.38.66.34.34,0,0,1,0,.18l.13.09.15.07-.14.25A.5.5,0,0,0,38,101.4Z"/><path class="cls-20" d="M36.92,100.8a.84.84,0,0,0,.38.66.23.23,0,0,0,.34,0,1.56,1.56,0,0,1-.52-.89C37,100.53,36.92,100.63,36.92,100.8Z"/><path class="cls-20" d="M37.64,101.42a.34.34,0,0,0,0-.18.84.84,0,0,0-.38-.66.31.31,0,0,0-.18,0A1.56,1.56,0,0,0,37.64,101.42Z"/><polygon class="cls-13" points="77.11 58.26 94.09 48.47 94.05 107.21 77.07 117 77.11 58.26"/><polygon class="cls-45" points="94.05 107.21 77.07 117 77.07 118.26 95.14 107.84 95.18 47.85 94.09 48.47 94.05 107.21"/><polygon class="cls-46" points="90.59 78.86 92 78.05 92 79.67 90.59 80.48 90.59 78.86"/><polygon class="cls-47" points="87.78 80.48 89.18 79.67 89.18 81.29 87.78 82.1 87.78 80.48"/><polygon class="cls-48" points="84.96 82.1 86.37 81.29 86.37 82.91 84.96 83.72 84.96 82.1"/><polygon class="cls-46" points="82.15 83.72 83.56 82.91 83.56 84.53 82.15 85.34 82.15 83.72"/><polygon class="cls-48" points="79.34 85.34 80.74 84.53 80.74 86.15 79.33 86.96 79.34 85.34"/><polygon class="cls-46" points="90.59 75.6 92 74.79 92 76.41 90.59 77.22 90.59 75.6"/><polygon class="cls-46" points="87.78 77.22 89.19 76.41 89.19 78.03 87.78 78.84 87.78 77.22"/><polygon class="cls-46" points="84.97 78.84 86.37 78.03 86.37 79.65 84.97 80.46 84.97 78.84"/><polygon class="cls-46" points="82.15 80.46 83.56 79.65 83.56 81.27 82.15 82.08 82.15 80.46"/><polygon class="cls-46" points="79.34 82.08 80.75 81.27 80.74 82.89 79.34 83.7 79.34 82.08"/><polygon class="cls-46" points="90.6 72.34 92 71.53 92 73.15 90.6 73.96 90.6 72.34"/><polygon class="cls-46" points="87.78 73.96 89.19 73.15 89.19 74.77 87.78 75.58 87.78 73.96"/><polygon class="cls-46" points="84.97 75.58 86.38 74.77 86.38 76.39 84.97 77.2 84.97 75.58"/><polygon class="cls-47" points="82.16 77.2 83.56 76.39 83.56 78.01 82.16 78.82 82.16 77.2"/><polygon class="cls-48" points="79.34 78.82 80.75 78.01 80.75 79.63 79.34 80.44 79.34 78.82"/><polygon class="cls-48" points="90.6 69.08 92.01 68.27 92.01 69.89 90.6 70.7 90.6 69.08"/><polygon class="cls-48" points="87.79 70.7 89.19 69.89 89.19 71.51 87.79 72.32 87.79 70.7"/><polygon class="cls-47" points="84.97 72.32 86.38 71.51 86.38 73.13 84.97 73.94 84.97 72.32"/><polygon class="cls-46" points="82.16 73.94 83.57 73.13 83.56 74.75 82.16 75.56 82.16 73.94"/><polygon class="cls-46" points="79.35 75.56 80.75 74.75 80.75 76.37 79.34 77.18 79.35 75.56"/><polygon class="cls-46" points="90.61 65.82 92.01 65 92.01 66.63 90.6 67.44 90.61 65.82"/><polygon class="cls-46" points="87.79 67.44 89.2 66.63 89.2 68.25 87.79 69.06 87.79 67.44"/><polygon class="cls-46" points="84.98 69.06 86.39 68.25 86.38 69.87 84.98 70.68 84.98 69.06"/><polygon class="cls-46" points="82.16 70.68 83.57 69.87 83.57 71.49 82.16 72.3 82.16 70.68"/><polygon class="cls-46" points="79.35 72.3 80.76 71.49 80.75 73.11 79.35 73.92 79.35 72.3"/><polygon class="cls-46" points="90.61 62.55 92.02 61.74 92.01 63.37 90.61 64.18 90.61 62.55"/><polygon class="cls-46" points="87.8 64.18 89.2 63.37 89.2 64.99 87.79 65.8 87.8 64.18"/><polygon class="cls-48" points="84.98 65.8 86.39 64.99 86.39 66.61 84.98 67.42 84.98 65.8"/><polygon class="cls-46" points="82.17 67.42 83.57 66.61 83.57 68.23 82.17 69.04 82.17 67.42"/><polygon class="cls-47" points="79.35 69.04 80.76 68.23 80.76 69.85 79.35 70.66 79.35 69.04"/><polygon class="cls-46" points="90.61 59.3 92.02 58.48 92.02 60.11 90.61 60.92 90.61 59.3"/><polygon class="cls-46" points="87.8 60.92 89.2 60.1 89.2 61.73 87.8 62.54 87.8 60.92"/><polygon class="cls-48" points="84.98 62.54 86.39 61.73 86.39 63.35 84.98 64.16 84.98 62.54"/><polygon class="cls-46" points="82.17 64.16 83.58 63.35 83.58 64.97 82.17 65.78 82.17 64.16"/><polygon class="cls-46" points="79.36 65.78 80.76 64.97 80.76 66.59 79.36 67.4 79.36 65.78"/><polygon class="cls-46" points="90.62 56.03 92.02 55.23 92.02 56.85 90.61 57.66 90.62 56.03"/><polygon class="cls-48" points="87.8 57.66 89.21 56.84 89.21 58.47 87.8 59.28 87.8 57.66"/><polygon class="cls-46" points="84.99 59.28 86.39 58.47 86.39 60.09 84.99 60.9 84.99 59.28"/><polygon class="cls-46" points="82.17 60.9 83.58 60.09 83.58 61.71 82.17 62.52 82.17 60.9"/><polygon class="cls-46" points="79.36 62.52 80.77 61.71 80.77 63.33 79.36 64.14 79.36 62.52"/><polygon class="cls-46" points="90.62 52.77 92.03 51.96 92.02 53.59 90.62 54.4 90.62 52.77"/><polygon class="cls-47" points="87.81 54.4 89.21 53.59 89.21 55.21 87.8 56.02 87.81 54.4"/><polygon class="cls-46" points="84.99 56.02 86.4 55.2 86.4 56.83 84.99 57.64 84.99 56.02"/><polygon class="cls-46" points="82.18 57.64 83.58 56.83 83.58 58.45 82.18 59.26 82.18 57.64"/><polygon class="cls-46" points="79.36 59.26 80.77 58.45 80.77 60.07 79.36 60.88 79.36 59.26"/><polygon class="cls-46" points="90.59 104.67 92 103.86 92 105.49 90.59 106.3 90.59 104.67"/><polygon class="cls-46" points="87.78 106.3 89.19 105.48 89.19 107.11 87.78 107.92 87.78 106.3"/><polygon class="cls-46" points="84.97 107.92 86.37 107.11 86.37 108.73 84.97 109.54 84.97 107.92"/><polygon class="cls-46" points="82.15 109.54 83.56 108.73 83.56 110.35 82.15 111.16 82.15 109.54"/><polygon class="cls-46" points="79.34 111.16 80.75 110.35 80.74 111.97 79.34 112.78 79.34 111.16"/><polygon class="cls-46" points="90.6 101.41 92 100.6 92 102.23 90.6 103.04 90.6 101.41"/><polygon class="cls-46" points="87.78 103.03 89.19 102.22 89.19 103.85 87.78 104.66 87.78 103.03"/><polygon class="cls-46" points="84.97 104.66 86.38 103.84 86.38 105.47 84.97 106.28 84.97 104.66"/><polygon class="cls-47" points="82.16 106.28 83.56 105.47 83.56 107.09 82.16 107.9 82.16 106.28"/><polygon class="cls-48" points="79.34 107.9 80.75 107.09 80.75 108.71 79.34 109.52 79.34 107.9"/><polygon class="cls-48" points="90.6 98.15 92.01 97.34 92.01 98.97 90.6 99.78 90.6 98.15"/><polygon class="cls-48" points="87.79 99.78 89.19 98.96 89.19 100.59 87.79 101.4 87.79 99.78"/><polygon class="cls-47" points="84.97 101.39 86.38 100.58 86.38 102.21 84.97 103.02 84.97 101.39"/><polygon class="cls-46" points="82.16 103.02 83.57 102.2 83.56 103.83 82.16 104.64 82.16 103.02"/><polygon class="cls-46" points="79.35 104.64 80.75 103.83 80.75 105.45 79.34 106.26 79.35 104.64"/><polygon class="cls-46" points="90.61 94.89 92.01 94.08 92.01 95.71 90.6 96.52 90.61 94.89"/><polygon class="cls-46" points="87.79 96.51 89.2 95.7 89.2 97.33 87.79 98.14 87.79 96.51"/><polygon class="cls-46" points="84.98 98.14 86.39 97.33 86.38 98.95 84.98 99.76 84.98 98.14"/><polygon class="cls-46" points="82.16 99.75 83.57 98.94 83.57 100.57 82.16 101.38 82.16 99.75"/><polygon class="cls-46" points="79.35 101.38 80.76 100.57 80.75 102.19 79.35 103 79.35 101.38"/><polygon class="cls-46" points="90.61 91.63 92.02 90.82 92.01 92.45 90.61 93.26 90.61 91.63"/><polygon class="cls-46" points="87.8 93.25 89.2 92.44 89.2 94.07 87.79 94.88 87.8 93.25"/><polygon class="cls-48" points="84.98 94.88 86.39 94.06 86.39 95.69 84.98 96.5 84.98 94.88"/><polygon class="cls-46" points="82.17 96.5 83.57 95.69 83.57 97.31 82.17 98.12 82.17 96.5"/><polygon class="cls-47" points="79.35 98.12 80.76 97.31 80.76 98.93 79.35 99.74 79.35 98.12"/><polygon class="cls-46" points="90.61 88.37 92.02 87.56 92.02 89.19 90.61 90 90.61 88.37"/><polygon class="cls-46" points="87.8 89.99 89.2 89.18 89.2 90.81 87.8 91.62 87.8 89.99"/><polygon class="cls-48" points="84.98 91.61 86.39 90.8 86.39 92.43 84.98 93.24 84.98 91.61"/><polygon class="cls-46" points="82.17 93.23 83.58 92.42 83.58 94.05 82.17 94.86 82.17 93.23"/><polygon class="cls-46" points="79.36 94.86 80.76 94.05 80.76 95.67 79.36 96.48 79.36 94.86"/><polygon class="cls-46" points="90.62 85.11 92.02 84.3 92.02 85.93 90.61 86.74 90.62 85.11"/><polygon class="cls-48" points="87.8 86.73 89.21 85.92 89.21 87.55 87.8 88.36 87.8 86.73"/><polygon class="cls-46" points="84.99 88.35 86.39 87.54 86.39 89.17 84.99 89.98 84.99 88.35"/><polygon class="cls-46" points="82.17 89.97 83.58 89.16 83.58 90.79 82.17 91.6 82.17 89.97"/><polygon class="cls-46" points="79.36 91.59 80.77 90.78 80.77 92.41 79.36 93.22 79.36 91.59"/><polygon class="cls-46" points="90.62 81.85 92.03 81.04 92.02 82.67 90.62 83.48 90.62 81.85"/><polygon class="cls-47" points="87.81 83.47 89.21 82.66 89.21 84.29 87.8 85.1 87.81 83.47"/><polygon class="cls-46" points="84.99 85.09 86.4 84.28 86.4 85.91 84.99 86.72 84.99 85.09"/><polygon class="cls-46" points="82.18 86.71 83.58 85.9 83.58 87.53 82.18 88.34 82.18 86.71"/><polygon class="cls-46" points="79.36 88.33 80.77 87.53 80.77 89.15 79.36 89.96 79.36 88.33"/><path class="cls-7" d="M44,151.88a2,2,0,0,1-1-.23L.55,127.14a1,1,0,0,1-.55-.87,1.19,1.19,0,0,1,.67-1l25.52-14.73a2.36,2.36,0,0,1,2.19-.07L70.83,135a1,1,0,0,1,.55.87,1.17,1.17,0,0,1-.67,1L45.19,151.58A2.51,2.51,0,0,1,44,151.88Zm-16.6-41.24a2,2,0,0,0-1,.25L.87,125.62a.8.8,0,0,0-.47.65.63.63,0,0,0,.35.52L43.2,151.3a2,2,0,0,0,1.79-.07L70.51,136.5a.8.8,0,0,0,.47-.65.6.6,0,0,0-.35-.52L28.18,110.82A1.51,1.51,0,0,0,27.39,110.64Z"/><path class="cls-8" d="M42.58,70.69h4.11l-1-2.24-40.94-16v68.47h0a.43.43,0,0,0,.24.33l37.34,21.56a1.57,1.57,0,0,0,.23.09Z"/><path class="cls-79" d="M66.62,60.9,43.06,74.35V115.5h0V143h0a1.63,1.63,0,0,0,.76-.21l22.44-12.95a.65.65,0,0,0,.36-.47h0Z"/><path class="cls-10" d="M41.37,53.77v88.49l1,.57a1.37,1.37,0,0,0,.7.14c.27,0,.28-.16.5-.29l.2-.08-.21-10.5V115.65L44,53.77Z"/><path class="cls-11" d="M44,132.24V73.79l-1,.56V115.5h0V143h0l.17,0h0a1.9,1.9,0,0,0,.36-.09h0l.17-.09.21-.12Z"/><g class="cls-12"><polygon class="cls-13" points="6.61 56.23 39.51 75.23 39.51 139.22 6.61 120.22 6.61 56.23"/></g><g class="cls-12"><polygon class="cls-13" points="4.76 110.99 41.37 86.48 41.37 73.85 4.76 52.47 4.76 110.99"/></g><path class="cls-14" d="M42.35,74.41,5,52.86c-.37-.22-.33-.6.11-.85l22.44-13A1.63,1.63,0,0,1,29,39L66.37,60.54c.37.22.33.6-.11.85l-22.44,13A1.63,1.63,0,0,1,42.35,74.41Z"/><g class="cls-80"><path class="cls-81" d="M28.66,40H26L5.12,52c-.44.25-.48.63-.11.85l1,.58L38.46,72.16l4.26,0Z"/></g><polygon class="cls-82" points="28.66 41.28 10.72 51.64 8.99 51.31 8.99 52.64 42.72 72.12 59.8 60.51 28.66 41.28"/><polygon class="cls-83" points="62.4 59.43 62.4 60.76 42.72 72.12 42.72 70.79 62.4 59.43"/><polygon class="cls-84" points="42.72 70.79 8.99 51.31 28.66 39.95 62.4 59.43 42.72 70.79"/><polygon class="cls-20" points="21.58 49.89 21.04 49.58 21.08 49.33 26.07 46.43 26.76 46.76 26.63 46.98 21.58 49.89"/><polygon class="cls-85" points="26.1 46.67 26.63 46.98 26.98 46.78 26.1 46.27 20.7 49.38 21.04 49.58 26.1 46.67"/><polygon class="cls-20" points="23.21 50.83 22.67 50.52 22.71 50.27 27.7 47.37 28.39 47.7 28.26 47.91 23.21 50.83"/><polygon class="cls-86" points="27.73 47.6 28.26 47.91 28.61 47.71 27.73 47.2 22.33 50.32 22.67 50.52 27.73 47.6"/><polygon class="cls-20" points="24.84 51.77 24.3 51.46 24.35 51.21 29.33 48.31 30.02 48.64 29.89 48.85 24.84 51.77"/><polygon class="cls-87" points="29.36 48.54 29.89 48.85 30.24 48.65 29.36 48.14 23.96 51.26 24.3 51.46 29.36 48.54"/><polygon class="cls-20" points="26.47 52.71 25.93 52.4 25.98 52.15 30.96 49.25 31.66 49.58 31.53 49.79 26.47 52.71"/><polygon class="cls-88" points="30.99 49.48 31.53 49.79 31.87 49.59 30.99 49.08 25.59 52.2 25.93 52.4 30.99 49.48"/><polygon class="cls-20" points="31.24 55.48 30.7 55.17 30.75 54.92 35.73 52.02 36.42 52.35 36.3 52.56 31.24 55.48"/><polygon class="cls-89" points="35.76 52.25 36.3 52.56 36.64 52.36 35.76 51.85 30.36 54.97 30.7 55.17 35.76 52.25"/><polygon class="cls-20" points="32.87 56.42 32.34 56.11 32.38 55.86 37.36 52.96 38.06 53.29 37.93 53.5 32.87 56.42"/><polygon class="cls-90" points="37.39 53.19 37.93 53.5 38.27 53.3 37.39 52.79 31.99 55.91 32.34 56.11 37.39 53.19"/><polygon class="cls-20" points="34.5 57.36 33.97 57.05 34.01 56.8 38.99 53.9 39.69 54.23 39.56 54.44 34.5 57.36"/><polygon class="cls-91" points="39.02 54.13 39.56 54.44 39.91 54.24 39.02 53.73 33.62 56.85 33.97 57.05 39.02 54.13"/><polygon class="cls-20" points="36.13 58.3 35.6 57.99 35.64 57.74 40.63 54.84 41.32 55.16 41.19 55.38 36.13 58.3"/><polygon class="cls-92" points="40.65 55.07 41.19 55.38 41.54 55.18 40.65 54.67 35.25 57.79 35.6 57.99 40.65 55.07"/><polygon class="cls-20" points="40.91 61.07 40.37 60.76 40.41 60.51 45.4 57.61 46.09 57.94 45.96 58.15 40.91 61.07"/><polygon class="cls-93" points="45.42 57.84 45.96 58.15 46.31 57.95 45.42 57.44 40.02 60.56 40.37 60.76 45.42 57.84"/><polygon class="cls-20" points="42.54 62.01 42 61.7 42.04 61.45 47.03 58.55 47.72 58.88 47.59 59.09 42.54 62.01"/><polygon class="cls-94" points="47.05 58.78 47.59 59.09 47.94 58.89 47.05 58.38 41.65 61.5 42 61.7 47.05 58.78"/><polygon class="cls-20" points="44.17 62.95 43.63 62.64 43.67 62.38 48.66 59.48 49.35 59.81 49.22 60.03 44.17 62.95"/><polygon class="cls-95" points="48.69 59.72 49.22 60.03 49.57 59.83 48.69 59.32 43.28 62.44 43.63 62.64 48.69 59.72"/><polygon class="cls-20" points="45.8 63.89 45.26 63.58 45.3 63.32 50.29 60.42 50.98 60.75 50.85 60.97 45.8 63.89"/><polygon class="cls-96" points="50.32 60.66 50.85 60.97 51.2 60.77 50.32 60.26 44.92 63.38 45.26 63.58 50.32 60.66"/><path class="cls-97" d="M40.41,75.46a1.48,1.48,0,0,0-.66-1.15.5.5,0,0,0-.48,0h0l-.47.27h.3a.68.68,0,0,0,0,.15,1.47,1.47,0,0,0,.67,1.15.42.42,0,0,0,.14.06l-.14.26.47-.27h0A.48.48,0,0,0,40.41,75.46Z"/><path class="cls-98" d="M39.94,75.74c0,.43-.3.6-.67.39A1.5,1.5,0,0,1,38.61,75c0-.42.3-.59.66-.38A1.47,1.47,0,0,1,39.94,75.74Z"/><path class="cls-20" d="M39.66,75.58c0,.24-.18.34-.39.22a.84.84,0,0,1-.38-.66c0-.25.17-.35.38-.22A.84.84,0,0,1,39.66,75.58Z"/><path class="cls-99" d="M7.51,56.57a1.47,1.47,0,0,0-.67-1.15.48.48,0,0,0-.47,0h0l-.47.27h.29a.71.71,0,0,0,0,.15A1.48,1.48,0,0,0,6.84,57L7,57l-.14.26L7.31,57h0A.48.48,0,0,0,7.51,56.57Z"/><path class="cls-100" d="M7,56.85c0,.43-.29.6-.66.39a1.49,1.49,0,0,1-.67-1.16c0-.42.3-.59.67-.38A1.46,1.46,0,0,1,7,56.85Z"/><path class="cls-20" d="M6.75,56.69c0,.24-.17.34-.38.22A.84.84,0,0,1,6,56.25c0-.25.17-.35.38-.22A.84.84,0,0,1,6.75,56.69Z"/><path class="cls-101" d="M40.41,139.44a1.47,1.47,0,0,0-.66-1.15.48.48,0,0,0-.48,0h0l-.47.28h0a.48.48,0,0,1,.47,0,1.47,1.47,0,0,1,.67,1.16.49.49,0,0,1-.18.42h0l.47-.27h0A.47.47,0,0,0,40.41,139.44Z"/><path class="cls-102" d="M39.75,139.82a1.1,1.1,0,0,1-.14-.09c-.06.1-.19.13-.34,0a.84.84,0,0,1-.38-.66c0-.17.08-.27.21-.27a1.11,1.11,0,0,1,0-.17.59.59,0,0,1,0-.14h-.3a.45.45,0,0,0-.19.43,1.48,1.48,0,0,0,.66,1.15.49.49,0,0,0,.49,0l.13-.25Z"/><path class="cls-103" d="M39.94,139.72a1.47,1.47,0,0,0-.67-1.16.48.48,0,0,0-.47,0h.3a.59.59,0,0,0,0,.14,1.11,1.11,0,0,0,0,.17.3.3,0,0,1,.17,0,.86.86,0,0,1,.39.66.35.35,0,0,1,0,.18,1.1,1.1,0,0,0,.14.09l.14.07-.13.25A.49.49,0,0,0,39.94,139.72Z"/><path class="cls-104" d="M39.94,139.72a1.47,1.47,0,0,0-.67-1.16.48.48,0,0,0-.47,0h.3a.59.59,0,0,0,0,.14,1.11,1.11,0,0,0,0,.17.3.3,0,0,1,.17,0,.86.86,0,0,1,.39.66.35.35,0,0,1,0,.18,1.1,1.1,0,0,0,.14.09l.14.07-.13.25A.49.49,0,0,0,39.94,139.72Z"/><path class="cls-20" d="M38.89,139.11a.84.84,0,0,0,.38.66c.15.09.28.06.34,0a1.5,1.5,0,0,1-.51-.89C39,138.84,38.89,138.94,38.89,139.11Z"/><path class="cls-20" d="M39.61,139.73a.35.35,0,0,0,0-.18.86.86,0,0,0-.39-.66.3.3,0,0,0-.17,0A1.5,1.5,0,0,0,39.61,139.73Z"/><path class="cls-105" d="M6.84,119.4a.46.46,0,0,0-.47-.05h0l-.47.28h0a.48.48,0,0,1,.47,0A1.48,1.48,0,0,1,7,120.83a.49.49,0,0,1-.18.42h0l.46-.27h0a.47.47,0,0,0,.2-.43A1.45,1.45,0,0,0,6.84,119.4Z"/><path class="cls-106" d="M6.84,120.93l-.13-.09a.23.23,0,0,1-.34,0,.84.84,0,0,1-.38-.66c0-.17.08-.27.2-.27a1,1,0,0,1,0-.17.61.61,0,0,1,0-.14H5.9a.46.46,0,0,0-.2.43,1.47,1.47,0,0,0,.67,1.15.47.47,0,0,0,.48,0L7,121Z"/><path class="cls-107" d="M7,120.83a1.48,1.48,0,0,0-.66-1.16.48.48,0,0,0-.47,0h.29a.61.61,0,0,0,0,.14,1,1,0,0,0,0,.17.33.33,0,0,1,.18,0,.84.84,0,0,1,.38.66.44.44,0,0,1,0,.18l.13.09L7,121l-.14.25A.49.49,0,0,0,7,120.83Z"/><path class="cls-108" d="M7,120.83a1.48,1.48,0,0,0-.66-1.16.48.48,0,0,0-.47,0h.29a.61.61,0,0,0,0,.14,1,1,0,0,0,0,.17.33.33,0,0,1,.18,0,.84.84,0,0,1,.38.66.44.44,0,0,1,0,.18l.13.09L7,121l-.14.25A.49.49,0,0,0,7,120.83Z"/><path class="cls-20" d="M6,120.22a.84.84,0,0,0,.38.66.23.23,0,0,0,.34,0,1.56,1.56,0,0,1-.52-.89C6.07,120,6,120.05,6,120.22Z"/><path class="cls-20" d="M6.71,120.84a.44.44,0,0,0,0-.18.84.84,0,0,0-.38-.66.33.33,0,0,0-.18,0A1.56,1.56,0,0,0,6.71,120.84Z"/><polygon class="cls-13" points="46.18 77.68 63.16 67.89 63.12 126.63 46.14 136.42 46.18 77.68"/><polygon class="cls-45" points="63.12 126.63 46.14 136.42 46.14 137.68 64.21 127.26 64.25 67.27 63.16 67.89 63.12 126.63"/><polygon class="cls-46" points="59.66 98.28 61.07 97.47 61.06 99.09 59.66 99.9 59.66 98.28"/><polygon class="cls-47" points="56.85 99.9 58.25 99.09 58.25 100.71 56.84 101.52 56.85 99.9"/><polygon class="cls-48" points="54.03 101.52 55.44 100.71 55.44 102.33 54.03 103.14 54.03 101.52"/><polygon class="cls-46" points="51.22 103.14 52.63 102.33 52.62 103.95 51.22 104.76 51.22 103.14"/><polygon class="cls-48" points="48.41 104.76 49.81 103.95 49.81 105.57 48.4 106.38 48.41 104.76"/><polygon class="cls-46" points="59.66 95.02 61.07 94.21 61.07 95.83 59.66 96.64 59.66 95.02"/><polygon class="cls-46" points="56.85 96.64 58.26 95.83 58.26 97.45 56.85 98.26 56.85 96.64"/><polygon class="cls-46" points="54.04 98.26 55.44 97.45 55.44 99.07 54.03 99.88 54.04 98.26"/><polygon class="cls-46" points="51.22 99.88 52.63 99.07 52.63 100.69 51.22 101.5 51.22 99.88"/><polygon class="cls-46" points="48.41 101.5 49.81 100.69 49.81 102.31 48.41 103.12 48.41 101.5"/><polygon class="cls-46" points="59.67 91.76 61.07 90.95 61.07 92.57 59.67 93.38 59.67 91.76"/><polygon class="cls-46" points="56.85 93.38 58.26 92.57 58.26 94.19 56.85 95 56.85 93.38"/><polygon class="cls-46" points="54.04 95 55.45 94.19 55.45 95.81 54.04 96.62 54.04 95"/><polygon class="cls-47" points="51.23 96.62 52.63 95.81 52.63 97.43 51.22 98.24 51.23 96.62"/><polygon class="cls-48" points="48.41 98.24 49.82 97.43 49.82 99.05 48.41 99.86 48.41 98.24"/><polygon class="cls-48" points="59.67 88.5 61.08 87.69 61.08 89.31 59.67 90.12 59.67 88.5"/><polygon class="cls-48" points="56.86 90.12 58.26 89.31 58.26 90.93 56.85 91.74 56.86 90.12"/><polygon class="cls-47" points="54.04 91.74 55.45 90.93 55.45 92.55 54.04 93.36 54.04 91.74"/><polygon class="cls-46" points="51.23 93.36 52.64 92.55 52.63 94.17 51.23 94.98 51.23 93.36"/><polygon class="cls-46" points="48.42 94.98 49.82 94.17 49.82 95.79 48.41 96.6 48.42 94.98"/><polygon class="cls-46" points="59.67 85.24 61.08 84.43 61.08 86.05 59.67 86.86 59.67 85.24"/><polygon class="cls-46" points="56.86 86.86 58.27 86.05 58.27 87.67 56.86 88.48 56.86 86.86"/><polygon class="cls-46" points="54.05 88.48 55.45 87.67 55.45 89.29 54.05 90.1 54.05 88.48"/><polygon class="cls-46" points="51.23 90.1 52.64 89.29 52.64 90.91 51.23 91.72 51.23 90.1"/><polygon class="cls-46" points="48.42 91.72 49.83 90.91 49.82 92.53 48.42 93.34 48.42 91.72"/><polygon class="cls-46" points="59.68 81.98 61.09 81.17 61.08 82.79 59.68 83.6 59.68 81.98"/><polygon class="cls-46" points="56.86 83.6 58.27 82.79 58.27 84.41 56.86 85.22 56.86 83.6"/><polygon class="cls-48" points="54.05 85.22 55.46 84.41 55.45 86.03 54.05 86.84 54.05 85.22"/><polygon class="cls-46" points="51.24 86.84 52.64 86.03 52.64 87.65 51.23 88.46 51.24 86.84"/><polygon class="cls-47" points="48.42 88.46 49.83 87.65 49.83 89.27 48.42 90.08 48.42 88.46"/><polygon class="cls-46" points="59.68 78.72 61.09 77.91 61.09 79.53 59.68 80.34 59.68 78.72"/><polygon class="cls-46" points="56.87 80.34 58.27 79.53 58.27 81.15 56.87 81.96 56.87 80.34"/><polygon class="cls-48" points="54.05 81.96 55.46 81.15 55.46 82.77 54.05 83.58 54.05 81.96"/><polygon class="cls-46" points="51.24 83.58 52.65 82.77 52.65 84.39 51.24 85.2 51.24 83.58"/><polygon class="cls-46" points="48.43 85.2 49.83 84.39 49.83 86.01 48.42 86.82 48.43 85.2"/><polygon class="cls-46" points="59.69 75.46 61.09 74.64 61.09 76.27 59.68 77.08 59.69 75.46"/><polygon class="cls-48" points="56.87 77.08 58.28 76.27 58.28 77.89 56.87 78.7 56.87 77.08"/><polygon class="cls-46" points="54.06 78.7 55.46 77.89 55.46 79.51 54.06 80.32 54.06 78.7"/><polygon class="cls-46" points="51.24 80.32 52.65 79.51 52.65 81.13 51.24 81.94 51.24 80.32"/><polygon class="cls-46" points="48.43 81.94 49.84 81.13 49.84 82.75 48.43 83.56 48.43 81.94"/><polygon class="cls-46" points="59.69 72.19 61.09 71.39 61.09 73.01 59.69 73.82 59.69 72.19"/><polygon class="cls-47" points="56.88 73.82 58.28 73.01 58.28 74.63 56.87 75.44 56.88 73.82"/><polygon class="cls-46" points="54.06 75.44 55.47 74.63 55.47 76.25 54.06 77.06 54.06 75.44"/><polygon class="cls-46" points="51.25 77.06 52.65 76.25 52.65 77.87 51.24 78.68 51.25 77.06"/><polygon class="cls-46" points="48.43 78.68 49.84 77.87 49.84 79.49 48.43 80.3 48.43 78.68"/><polygon class="cls-46" points="59.66 124.09 61.07 123.28 61.07 124.91 59.66 125.72 59.66 124.09"/><polygon class="cls-46" points="56.85 125.72 58.26 124.91 58.26 126.53 56.85 127.34 56.85 125.72"/><polygon class="cls-46" points="54.04 127.34 55.44 126.53 55.44 128.15 54.03 128.96 54.04 127.34"/><polygon class="cls-46" points="51.22 128.96 52.63 128.15 52.63 129.77 51.22 130.58 51.22 128.96"/><polygon class="cls-46" points="48.41 130.58 49.81 129.77 49.81 131.39 48.41 132.2 48.41 130.58"/><polygon class="cls-46" points="59.67 120.83 61.07 120.03 61.07 121.65 59.67 122.46 59.67 120.83"/><polygon class="cls-46" points="56.85 122.45 58.26 121.64 58.26 123.27 56.85 124.08 56.85 122.45"/><polygon class="cls-46" points="54.04 124.08 55.45 123.27 55.45 124.89 54.04 125.7 54.04 124.08"/><polygon class="cls-47" points="51.23 125.7 52.63 124.89 52.63 126.51 51.22 127.32 51.23 125.7"/><polygon class="cls-48" points="48.41 127.32 49.82 126.51 49.82 128.13 48.41 128.94 48.41 127.32"/><polygon class="cls-48" points="59.67 117.58 61.08 116.76 61.08 118.39 59.67 119.2 59.67 117.58"/><polygon class="cls-48" points="56.86 119.19 58.26 118.39 58.26 120.01 56.85 120.82 56.86 119.19"/><polygon class="cls-47" points="54.04 120.82 55.45 120 55.45 121.63 54.04 122.44 54.04 120.82"/><polygon class="cls-46" points="51.23 122.44 52.64 121.63 52.63 123.25 51.23 124.06 51.23 122.44"/><polygon class="cls-46" points="48.42 124.06 49.82 123.25 49.82 124.87 48.41 125.68 48.42 124.06"/><polygon class="cls-46" points="59.67 114.31 61.08 113.5 61.08 115.13 59.67 115.94 59.67 114.31"/><polygon class="cls-46" points="56.86 115.94 58.27 115.13 58.27 116.75 56.86 117.56 56.86 115.94"/><polygon class="cls-46" points="54.05 117.56 55.45 116.75 55.45 118.37 54.05 119.18 54.05 117.56"/><polygon class="cls-46" points="51.23 119.18 52.64 118.37 52.64 119.99 51.23 120.8 51.23 119.18"/><polygon class="cls-46" points="48.42 120.8 49.83 119.99 49.82 121.61 48.42 122.42 48.42 120.8"/><polygon class="cls-46" points="59.68 111.05 61.09 110.24 61.08 111.87 59.68 112.68 59.68 111.05"/><polygon class="cls-46" points="56.86 112.67 58.27 111.86 58.27 113.49 56.86 114.3 56.86 112.67"/><polygon class="cls-48" points="54.05 114.3 55.46 113.48 55.45 115.11 54.05 115.92 54.05 114.3"/><polygon class="cls-46" points="51.24 115.92 52.64 115.11 52.64 116.73 51.23 117.54 51.24 115.92"/><polygon class="cls-47" points="48.42 117.54 49.83 116.73 49.83 118.35 48.42 119.16 48.42 117.54"/><polygon class="cls-46" points="59.68 107.79 61.09 106.98 61.09 108.61 59.68 109.42 59.68 107.79"/><polygon class="cls-46" points="56.87 109.41 58.27 108.6 58.27 110.23 56.87 111.04 56.87 109.41"/><polygon class="cls-48" points="54.05 111.03 55.46 110.22 55.46 111.85 54.05 112.66 54.05 111.03"/><polygon class="cls-46" points="51.24 112.66 52.65 111.84 52.65 113.47 51.24 114.28 51.24 112.66"/><polygon class="cls-46" points="48.43 114.28 49.83 113.47 49.83 115.09 48.42 115.9 48.43 114.28"/><polygon class="cls-46" points="59.69 104.53 61.09 103.72 61.09 105.35 59.68 106.16 59.69 104.53"/><polygon class="cls-48" points="56.87 106.15 58.28 105.34 58.28 106.97 56.87 107.78 56.87 106.15"/><polygon class="cls-46" points="54.06 107.78 55.46 106.96 55.46 108.59 54.06 109.4 54.06 107.78"/><polygon class="cls-46" points="51.24 109.39 52.65 108.58 52.65 110.21 51.24 111.02 51.24 109.39"/><polygon class="cls-46" points="48.43 111.02 49.84 110.2 49.84 111.83 48.43 112.64 48.43 111.02"/><polygon class="cls-46" points="59.69 101.27 61.09 100.46 61.09 102.09 59.69 102.9 59.69 101.27"/><polygon class="cls-47" points="56.88 102.89 58.28 102.08 58.28 103.71 56.87 104.52 56.88 102.89"/><polygon class="cls-46" points="54.06 104.51 55.47 103.7 55.47 105.33 54.06 106.14 54.06 104.51"/><polygon class="cls-46" points="51.25 106.14 52.65 105.33 52.65 106.95 51.24 107.76 51.25 106.14"/><polygon class="cls-46" points="48.43 107.75 49.84 106.94 49.84 108.57 48.43 109.38 48.43 107.75"/><path class="cls-7" d="M109.44,150.73a4.51,4.51,0,0,1-2.21-.51L89.5,140a1.65,1.65,0,0,1-.93-1.39,2.19,2.19,0,0,1,1.28-1.76l17-9.83a5.61,5.61,0,0,1,5.05-.2L129.66,137a1.66,1.66,0,0,1,.94,1.39,2.19,2.19,0,0,1-1.29,1.76l-17,9.83A5.81,5.81,0,0,1,109.44,150.73Zm.29-24a5.43,5.43,0,0,0-2.65.67l-17,9.83A1.85,1.85,0,0,0,89,138.6a1.26,1.26,0,0,0,.74,1l17.73,10.24a5.21,5.21,0,0,0,4.65-.2l17-9.84a1.83,1.83,0,0,0,1.09-1.41,1.24,1.24,0,0,0-.74-1l-17.73-10.24A4.16,4.16,0,0,0,109.73,126.69Z"/></g></g></svg>